<?xml version="1.0" encoding="utf-8"?>
<!-- Generator: Adobe Illustrator 22.1.0, SVG Export Plug-In . SVG Version: 6.00 Build 0)  -->
<svg version="1.1" id="Layer_1" xmlns="http://www.w3.org/2000/svg" xmlns:xlink="http://www.w3.org/1999/xlink" x="0px" y="0px"
	 viewBox="0 0 368.5 194.5" style="enable-background:new 0 0 368.5 194.5;" xml:space="preserve">
<style type="text/css">
	.st0{fill:none;stroke:#FFFFFF;stroke-width:2;stroke-miterlimit:10;}
	.st1{fill:#A6DFA1;}
	.st2{font-family:'BrandonGrotesque-Black';}
	.st3{font-size:12.1389px;}
	.st4{fill:#FFFFFF;}
	.st5{font-family:'BrandonGrotesque-Medium';}
	.st6{font-size:8.0926px;}
	.st7{fill:#E682BA;}
	.st8{fill:#DE9CFC;}
	.st9{font-size:9px;}
	.st10{font-size:13.7522px;}
</style>
<title>Untitled-4</title>
<line class="st0" x1="28.3" y1="103.5" x2="336.5" y2="31.5"/>
<text transform="matrix(1 -1.570796e-04 1.570796e-04 1 18.999 73.882)" class="st1 st2 st3">-</text>
<text transform="matrix(1 -1.570796e-04 1.570796e-04 1 23.248 73.8813)" class="st1 st2 st3">75%</text>
<text transform="matrix(1 -1.570796e-04 1.570796e-04 1 19.3688 85.2119)" class="st4 st5 st6">0</text>
<text transform="matrix(1 -1.570796e-04 1.570796e-04 1 24.4758 85.2111)" class="st4 st5 st6">.</text>
<text transform="matrix(1 -1.570796e-04 1.570796e-04 1 26.1988 85.2109)" class="st4 st5 st6">0</text>
<text transform="matrix(1 -1.570796e-04 1.570796e-04 1 31.2808 85.2101)" class="st4 st5 st6">3 €</text>
<path class="st1" d="M34.2,100.3c1.8,3.3,0.5,7.3-2.7,9.1s-7.3,0.5-9.1-2.7c-1.8-3.3-0.5-7.3,2.7-9.1
	C28.4,95.8,32.4,97.1,34.2,100.3C34.2,100.3,34.2,100.3,34.2,100.3z"/>
<path class="st7" d="M111.4,82c1.8,3.3,0.5,7.3-2.7,9.1c-3.3,1.8-7.3,0.5-9.1-2.7c-1.7-3.3-0.5-7.3,2.7-9.1
	C105.6,77.5,109.7,78.8,111.4,82C111.4,82,111.4,82,111.4,82z"/>
<path class="st8" d="M265.4,46.3c1.7,3.3,0.5,7.3-2.7,9.1s-7.3,0.5-9.1-2.7c-1.7-3.3-0.5-7.3,2.7-9.1
	C259.5,41.8,263.6,43,265.4,46.3C265.4,46.3,265.4,46.3,265.4,46.3z"/>
<path class="st8" d="M188.5,64.1c1.8,3.3,0.5,7.3-2.7,9.1c-3.3,1.8-7.3,0.5-9.1-2.7c-1.7-3.3-0.5-7.3,2.7-9.1
	C182.6,59.6,186.7,60.8,188.5,64.1C188.5,64.1,188.5,64.1,188.5,64.1z"/>
<text transform="matrix(1 -1.570796e-04 1.570796e-04 1 92.08 56.225)" class="st7 st2 st3">-</text>
<text transform="matrix(1 -1.570796e-04 1.570796e-04 1 96.304 56.2243)" class="st7 st2 st3">50%</text>
<text transform="matrix(1 -1.570796e-04 1.570796e-04 1 93.2388 67.5548)" class="st4 st5 st6">0</text>
<text transform="matrix(1 -1.570796e-04 1.570796e-04 1 98.3458 67.554)" class="st4 st5 st6">.</text>
<text transform="matrix(1 -1.570796e-04 1.570796e-04 1 100.0688 67.5537)" class="st4 st5 st6">06 €</text>
<text transform="matrix(1 -1.570796e-04 1.570796e-04 1 170.553 37.209)" class="st8 st2 st3">-</text>
<text transform="matrix(1 -1.570796e-04 1.570796e-04 1 174.789 37.2083)" class="st8 st2 st3">33%</text>
<text transform="matrix(1 -1.570796e-04 1.570796e-04 1 170.9248 48.5389)" class="st4 st5 st6">0</text>
<text transform="matrix(1 -1.570796e-04 1.570796e-04 1 176.0318 48.5381)" class="st4 st5 st6">.</text>
<text transform="matrix(1 -1.570796e-04 1.570796e-04 1 177.7548 48.5379)" class="st4 st5 st6">08 €</text>
<text transform="matrix(1 -1.570796e-04 1.570796e-04 1 245.502 19.122)" class="st8 st2 st3">-</text>
<text transform="matrix(1 -1.570796e-04 1.570796e-04 1 249.726 19.1213)" class="st8 st2 st3">16</text>
<text transform="matrix(1 -1.570796e-04 1.570796e-04 1 260.603 19.1196)" class="st8 st2 st3">.</text>
<text transform="matrix(1 -1.570796e-04 1.570796e-04 1 263.382 19.1192)" class="st8 st2 st3">6%</text>
<text transform="matrix(1 -1.570796e-04 1.570796e-04 1 250.6018 30.4512)" class="st4 st5 st6">0</text>
<text transform="matrix(1 -1.570796e-04 1.570796e-04 1 255.7088 30.4504)" class="st4 st5 st6">.</text>
<text transform="matrix(1 -1.570796e-04 1.570796e-04 1 257.3678 30.4501)" class="st4 st5 st6">1</text>
<text transform="matrix(1 -1.570796e-04 1.570796e-04 1 260.1188 30.4497)" class="st4 st5 st6">0 €</text>
<line class="st0" x1="28.3" y1="149.8" x2="337.4" y2="149.8"/>
<text transform="matrix(0.983 0 0 1 89.8799 171.6367)" class="st7 st2 st9">PUBLIC </text>
<text transform="matrix(0.983 0 0 1 89.8799 181.3311)" class="st7 st2 st9">PRESALE</text>
<text transform="matrix(0.983 0 0 1 166.9219 171.4141)" class="st8 st2 st9">PUBLIC </text>
<text transform="matrix(0.983 0 0 1 166.9219 181.1084)" class="st8 st2 st9">MAIN SALE</text>
<text transform="matrix(0.983 0 0 1 166.9219 190.8027)" class="st4 st2 st9">TIER 1</text>
<text transform="matrix(0.983 0 0 1 246.5469 171.6367)" class="st8 st2 st9">PUBLIC </text>
<text transform="matrix(0.983 0 0 1 246.5469 181.3311)" class="st8 st2 st9">MAIN SALE</text>
<text transform="matrix(0.983 0 0 1 246.5469 191.0264)" class="st4 st2 st9">TIER 2</text>
<text transform="matrix(0.983 0 0 1 323.0469 171.6367)" class="st8 st2 st9">PUBLIC </text>
<text transform="matrix(0.983 0 0 1 323.0469 181.3311)" class="st8 st2 st9">MAIN SALE</text>
<text transform="matrix(0.983 0 0 1 323.0469 191.0264)" class="st4 st2 st9">TIER 3</text>
<text transform="matrix(1 0 0 1 0 171.712)" class="st1 st2 st9">PRI</text>
<text transform="matrix(1 0 0 1 14.139 171.712)" class="st1 st2 st9">V</text>
<text transform="matrix(1 0 0 1 19.656 171.712)" class="st1 st2 st9">A</text>
<text transform="matrix(1 0 0 1 25.29 171.712)" class="st1 st2 st9">TE SALE</text>
<path class="st7" d="M110.8,146.6c1.8,3.3,0.5,7.3-2.7,9.1c-3.3,1.8-7.3,0.5-9.1-2.7c-1.7-3.3-0.5-7.3,2.7-9.1
	C105,142.1,109.1,143.3,110.8,146.6C110.8,146.6,110.8,146.6,110.8,146.6z"/>
<path class="st8" d="M188.4,146.4c1.8,3.3,0.5,7.3-2.7,9.1c-3.3,1.8-7.3,0.5-9.1-2.7c-1.7-3.3-0.5-7.3,2.7-9.1
	C182.6,141.9,186.6,143.1,188.4,146.4C188.4,146.4,188.4,146.4,188.4,146.4z"/>
<path class="st1" d="M34.2,146.6c1.8,3.3,0.5,7.3-2.7,9.1c-3.3,1.8-7.3,0.5-9.1-2.7c-1.7-3.3-0.5-7.3,2.7-9.1
	C28.4,142.1,32.4,143.3,34.2,146.6C34.2,146.6,34.2,146.6,34.2,146.6z"/>
<path class="st8" d="M342.9,28.4c1.7,3.3,0.5,7.3-2.7,9.1s-7.3,0.5-9.1-2.7c-1.7-3.3-0.5-7.3,2.7-9.1C337,24,341.1,25.2,342.9,28.4
	C342.9,28.4,342.9,28.4,342.9,28.4z"/>
<path class="st8" d="M265.4,146.6c1.7,3.3,0.5,7.3-2.7,9.1c-3.3,1.7-7.3,0.5-9.1-2.7c-1.7-3.3-0.5-7.3,2.7-9.1
	C259.5,142.1,263.6,143.3,265.4,146.6C265.4,146.6,265.4,146.6,265.4,146.6z"/>
<path class="st8" d="M342.9,146.6c1.7,3.3,0.5,7.3-2.7,9.1c-3.3,1.7-7.3,0.5-9.1-2.7c-1.7-3.3-0.5-7.3,2.7-9.1
	C337,142.1,341.1,143.3,342.9,146.6C342.9,146.6,342.9,146.6,342.9,146.6z"/>
<text transform="matrix(1 0 0 1 308.463 11.689)" class="st4 st2 st10">    0</text>
<text transform="matrix(1 0 0 1 329.228 11.689)" class="st4 st2 st10">.</text>
<text transform="matrix(1 0 0 1 332.157 11.689)" class="st4 st2 st10">12 €</text>
</svg>
