<?xml version="1.0" encoding="utf-8"?>
<!-- Generator: Adobe Illustrator 22.1.0, SVG Export Plug-In . SVG Version: 6.00 Build 0)  -->
<svg version="1.1" id="Layer_1" xmlns="http://www.w3.org/2000/svg" xmlns:xlink="http://www.w3.org/1999/xlink" x="0px" y="0px"
	 viewBox="0 0 454.1 446.8" style="enable-background:new 0 0 454.1 446.8;" xml:space="preserve">
<style type="text/css">
	.st0{fill:#4C306A;}
	.st1{fill-rule:evenodd;clip-rule:evenodd;fill:none;stroke:#C333FF;stroke-width:2;stroke-miterlimit:10;}
	.st2{fill-rule:evenodd;clip-rule:evenodd;fill:none;stroke:#D3007E;stroke-width:2;stroke-miterlimit:10;}
	.st3{fill:#FFFFFF;}
	.st4{font-family:'BrandonGrotesque-Medium';}
	.st5{font-size:9.4466px;}
	.st6{font-size:8.6594px;}
	.st7{fill:#F3D551;}
	.st8{fill:none;stroke:#F3D551;stroke-miterlimit:10;}
	.st9{fill-rule:evenodd;clip-rule:evenodd;fill:none;stroke:#F3D551;stroke-width:2;stroke-miterlimit:10;}
	.st10{fill-rule:evenodd;clip-rule:evenodd;fill:none;stroke:#D3007E;stroke-miterlimit:10;}
	.st11{font-size:10px;}
	.st12{fill-rule:evenodd;clip-rule:evenodd;fill:none;stroke:#4EC441;stroke-miterlimit:10;}
	.st13{fill-rule:evenodd;clip-rule:evenodd;fill:#4EC441;}
	.st14{fill-rule:evenodd;clip-rule:evenodd;fill:#C333FF;}
	.st15{fill:none;stroke:#4EC441;stroke-width:2;stroke-miterlimit:10;}
	.st16{fill-rule:evenodd;clip-rule:evenodd;fill:#D3007E;}
</style>
<rect class="st0" width="454.1" height="446.8"/>
<line class="st1" x1="336.6" y1="147" x2="341.8" y2="109"/>
<line class="st2" x1="272.6" y1="278.7" x2="318.7" y2="222.2"/>
<g>
	<text transform="matrix(1 0 0 1 297.2459 327.9142)" class="st3 st4 st5">GGC SOLD</text>
</g>
<g>
	<text transform="matrix(0 1 -1 0 120.7466 105.1759)"><tspan x="0" y="0" class="st3 st4 st5"> EUR</tspan><tspan x="20.7" y="0" class="st3 st4 st6"> </tspan><tspan x="22.6" y="0" class="st3 st4 st5">/ GGC</tspan></text>
</g>
<text transform="matrix(1 0 0 1 81.9407 261.8546)" class="st7 st4 st6">0.04</text>
<text transform="matrix(1 0 0 1 99.3177 337.9289)" class="st7 st4 st6">0</text>
<text transform="matrix(1 0 0 1 82.3909 224.3371)" class="st7 st4 st6">0.06</text>
<text transform="matrix(1 0 0 1 82.1224 186.2921)" class="st7 st4 st6">0.08</text>
<text transform="matrix(1 0 0 1 84.1058 148.5138)" class="st7 st4 st6">0.10</text>
<text transform="matrix(1 0 0 1 85.0843 111.3439)" class="st7 st4 st6">0.12</text>
<text transform="matrix(1 0 0 1 82.5906 299.6789)" class="st7 st4 st6">0.02</text>
<line class="st8" x1="105.1" y1="109.1" x2="112.7" y2="109.1"/>
<line class="st8" x1="105.1" y1="146.8" x2="112.7" y2="146.8"/>
<line class="st8" x1="105.1" y1="184.4" x2="112.7" y2="184.4"/>
<line class="st8" x1="105.1" y1="222.1" x2="112.7" y2="222.1"/>
<line class="st8" x1="105.1" y1="259.8" x2="112.7" y2="259.8"/>
<line class="st8" x1="105.1" y1="297.4" x2="112.7" y2="297.4"/>
<line class="st8" x1="105.1" y1="335.1" x2="112.7" y2="335.1"/>
<line class="st8" x1="158.8" y1="334.5" x2="158.8" y2="342.7"/>
<line class="st8" x1="204.6" y1="334.5" x2="204.6" y2="342.7"/>
<line class="st8" x1="250.4" y1="334.5" x2="250.4" y2="342.7"/>
<line class="st8" x1="296.1" y1="334.5" x2="296.1" y2="342.7"/>
<line class="st8" x1="341.9" y1="334.5" x2="341.9" y2="342.7"/>
<line class="st8" x1="112.5" y1="334.5" x2="112.5" y2="342.7"/>
<polyline class="st9" points="342.4,334.5 113,334.5 113,108 "/>
<text transform="matrix(1 0 0 1 150.053 352.5939)" class="st7 st4 st6">200 </text>
<text transform="matrix(1 0 0 1 195.4759 352.5939)" class="st7 st4 st6">400 </text>
<text transform="matrix(1 0 0 1 241.8484 352.5939)" class="st7 st4 st6">600 </text>
<text transform="matrix(1 0 0 1 287.284 352.5939)" class="st7 st4 st6">800 </text>
<text transform="matrix(1 0 0 1 332.1751 352.5939)" class="st7 st4 st6">1000</text>
<line class="st8" x1="135.7" y1="334.5" x2="135.7" y2="338.6"/>
<line class="st8" x1="181.4" y1="334.5" x2="181.4" y2="338.6"/>
<line class="st8" x1="227.2" y1="334.5" x2="227.2" y2="338.6"/>
<line class="st8" x1="272.9" y1="334.5" x2="272.9" y2="338.6"/>
<line class="st8" x1="318.7" y1="334.5" x2="318.7" y2="338.6"/>
<path class="st10" d="M324,349.9"/>
<g>
	<g>
		<line class="st8" x1="105.1" y1="108.5" x2="112.7" y2="108.5"/>
	</g>
</g>
<path class="st10" d="M326.3,334.8"/>
<g>
	<text transform="matrix(1 0 0 1 242.4793 272.1281)" class="st3 st4 st11">0.03 €</text>
</g>
<g>
	<text transform="matrix(1 0 0 1 280.3272 225.0636)" class="st3 st4 st11">0.06 €</text>
</g>
<g>
	<text transform="matrix(1 0 0 1 293.2042 188.2267)" class="st3 st4 st11">0.08 €</text>
</g>
<g>
	<text transform="matrix(1 0 0 1 300.8709 151.0602)" class="st3 st4 st11">0.10 €</text>
</g>
<g>
	<text transform="matrix(1 0 0 1 306.8709 112.5602)" class="st3 st4 st11">0.12 €</text>
</g>
<path class="st12" d="M326.3,335.6"/>
<path class="st13" d="M276.2,278.5c0,1.8-1.4,3.2-3.2,3.2l0,0c-1.8,0-3.2-1.4-3.2-3.2l0,0c0-1.8,1.4-3.2,3.2-3.2l0,0
	C274.7,275.3,276.2,276.7,276.2,278.5L276.2,278.5z"/>
<path class="st14" d="M333.5,184.4c0,1.8-1.4,3.2-3.2,3.2l0,0c-1.8,0-3.2-1.4-3.2-3.2l0,0c0-1.8,1.4-3.2,3.2-3.2l0,0
	C332.1,181.2,333.5,182.6,333.5,184.4L333.5,184.4z"/>
<line class="st8" x1="112.7" y1="316.2" x2="108.6" y2="316.2"/>
<line class="st8" x1="112.4" y1="278.6" x2="108.3" y2="278.6"/>
<line class="st8" x1="112.2" y1="240.9" x2="108.1" y2="240.9"/>
<line class="st8" x1="112" y1="203.2" x2="108" y2="203.2"/>
<line class="st8" x1="112.2" y1="165.6" x2="108.1" y2="165.6"/>
<line class="st8" x1="112.1" y1="128" x2="108" y2="128"/>
<line class="st15" x1="114" y1="278.7" x2="274" y2="278.7"/>
<polyline class="st1" points="318.7,222.2 330.3,184.4 336.5,146.9 "/>
<path class="st14" d="M339.8,147c0,1.8-1.4,3.2-3.2,3.2l0,0c-1.8,0-3.2-1.4-3.2-3.2l0,0c0-1.8,1.4-3.2,3.2-3.2l0,0
	C338.3,143.7,339.8,145.2,339.8,147L339.8,147z"/>
<path class="st14" d="M345.1,109.1c-0.1,1.8-1.6,3.2-3.3,3.1l0,0c-1.8-0.1-3.2-1.6-3.1-3.3l0,0c0.1-1.8,1.6-3.2,3.3-3.1l0,0
	C343.7,105.8,345.1,107.3,345.1,109.1L345.1,109.1z"/>
<path class="st16" d="M321.9,222.2c0,1.8-1.4,3.2-3.2,3.2l0,0c-1.8,0-3.2-1.4-3.2-3.2l0,0c0-1.8,1.4-3.2,3.2-3.2l0,0
	C320.5,219,321.9,220.5,321.9,222.2L321.9,222.2z"/>
</svg>
