<svg data-name="Layer 1" xmlns="http://www.w3.org/2000/svg" viewBox="0 0 187.554 69.755"><g data-name="Layer 1" fill="#fff"><path d="M187.554 29.624a4.175 4.175 0 1 1-4.175-4.175 4.175 4.175 0 0 1 4.175 4.175zm-.643 0a3.532 3.532 0 1 0-3.533 3.532 3.532 3.532 0 0 0 3.533-3.532z"/><path d="M182.1 27.7h1.9a1.311 1.311 0 0 1 .735.211 1.228 1.228 0 0 1 .431.487 1.271 1.271 0 0 1 .129.722 1.234 1.234 0 0 1-.6.962 2.485 2.485 0 0 1-.227.109l-.025.011.541 1.351h-.611a.04.04 0 0 1-.044-.03l-.488-1.224a.042.042 0 0 0-.046-.032h-1.059v1.283h-.64zm.641 1.927h1.319a.613.613 0 0 0 .6-.532.631.631 0 0 0-.5-.74.614.614 0 0 0-.142-.011h-1.274z"/></g><g data-name="Ebene 1"><path d="M22.02 25.11a23.684 23.684 0 0 1 14.966 5.766 1.077 1.077 0 0 1 .258 1.5 1.111 1.111 0 0 1-.135.156l-4.845 5.154a1.3 1.3 0 0 1-1.657.061 11.283 11.283 0 0 0-8.036-2.947 12.3 12.3 0 1 0 .062 24.6 14.551 14.551 0 0 0 5.459-.981V54.86h-3.864a1.115 1.115 0 0 1-1.164-1.06v-6.116a1.127 1.127 0 0 1 1.087-1.166h12.405a1.155 1.155 0 0 1 1.106 1.166l.06 16.5a1.525 1.525 0 0 1-.49.983 31 31 0 0 1-15.212 3.985 22.021 22.021 0 0 1 0-44.042M44.837 25.663H52.2a1.164 1.164 0 0 1 1.164 1.164v40.607A1.166 1.166 0 0 1 52.2 68.6h-7.363a1.166 1.166 0 0 1-1.166-1.166v-40.6a1.166 1.166 0 0 1 1.161-1.171zM59.4 26.152a1.153 1.153 0 0 1 1.165-1.1H62.1L86.575 48.6h.062V26.827a1.165 1.165 0 0 1 1.163-1.164h7.362a1.208 1.208 0 0 1 1.166 1.164v41.281a1.155 1.155 0 0 1-1.166 1.106h-.982a1.811 1.811 0 0 1-.8-.307L69.154 44.555h-.061v22.879a1.166 1.166 0 0 1-1.164 1.166h-7.3a1.206 1.206 0 0 1-1.165-1.165zM144.792 26.827a1.167 1.167 0 0 1 1.166-1.164H164.3a13.339 13.339 0 0 1 13.373 13.249c0 5.643-3.743 10.182-9.079 12.33L177 66.82a1.161 1.161 0 0 1-1.043 1.779H167.8a1.132 1.132 0 0 1-.981-.552l-8.159-16.254h-4.233v15.641a1.206 1.206 0 0 1-1.165 1.165h-7.3a1.166 1.166 0 0 1-1.166-1.165zM163.5 44a4.919 4.919 0 0 0 4.66-4.909 4.7 4.7 0 0 0-4.66-4.662h-9.078V44z" fill="#fff"/><path d="M100.932 69.755V21.282A21.1 21.1 0 0 1 121.446.007a20.785 20.785 0 0 1 21.308 20.249q.012.459 0 .918a21.336 21.336 0 0 1-6.054 14.458" fill="#f39fff"/><path d="M122.043 4.251A17.338 17.338 0 0 1 133 8.473a.784.784 0 0 1 .193 1.092.793.793 0 0 1-.1.12l-3.547 3.772a.949.949 0 0 1-1.212.046 8.261 8.261 0 0 0-5.883-2.155 9.006 9.006 0 0 0 .045 18.009 10.641 10.641 0 0 0 4-.718v-2.6h-2.83a.818.818 0 0 1-.855-.779v-4.481a.828.828 0 0 1 .8-.854.542.542 0 0 1 .057 0h9.027a.847.847 0 0 1 .809.854l.045 12.081a1.111 1.111 0 0 1-.36.718 22.68 22.68 0 0 1-11.14 2.922 16.125 16.125 0 0 1-.254-32.249h.254" fill="#b21a9d"/></g></svg>