<svg id="Ebene_1" data-name="Ebene 1" xmlns="http://www.w3.org/2000/svg" viewBox="0 0 177.671 69.755"><title>Logo_weiss_RGB_Pink</title><path d="M24.2,35.9A23.686,23.686,0,0,1,39.166,41.66a1.076,1.076,0,0,1,.123,1.656L34.444,48.47a1.3,1.3,0,0,1-1.657.061,11.28,11.28,0,0,0-8.035-2.944,12.3,12.3,0,0,0,.061,24.6,14.544,14.544,0,0,0,5.46-.982V65.645H26.408a1.116,1.116,0,0,1-1.165-1.1V58.468A1.127,1.127,0,0,1,26.408,57.3H38.736a1.155,1.155,0,0,1,1.106,1.166l.06,16.5a1.523,1.523,0,0,1-.49.983A31,31,0,0,1,24.2,79.936a22.021,22.021,0,0,1,0-44.041" transform="translate(-2.18 -10.951)" style="fill:#fff"/><path d="M44.837,25.5H52.2a1.164,1.164,0,0,1,1.164,1.164V67.267A1.165,1.165,0,0,1,52.2,68.432H44.837a1.166,1.166,0,0,1-1.166-1.166v-40.6A1.166,1.166,0,0,1,44.837,25.5Z" style="fill:#fff"/><path d="M61.583,36.936a1.152,1.152,0,0,1,1.164-1.1h1.534L88.755,59.386h.062V37.611a1.164,1.164,0,0,1,1.164-1.164h7.362a1.208,1.208,0,0,1,1.166,1.164V78.893A1.155,1.155,0,0,1,97.343,80H96.36a1.792,1.792,0,0,1-.8-.307L71.334,55.339h-.061V78.218a1.165,1.165,0,0,1-1.166,1.165h-7.3a1.206,1.206,0,0,1-1.166-1.165Z" transform="translate(-2.18 -10.951)" style="fill:#fff"/><path d="M146.972,37.611a1.167,1.167,0,0,1,1.166-1.164h18.34A13.339,13.339,0,0,1,179.852,49.7c0,5.643-3.744,10.182-9.08,12.33l8.4,15.578a1.161,1.161,0,0,1-1.043,1.779h-8.158a1.133,1.133,0,0,1-.982-.552l-8.157-16.254H156.6V78.218a1.206,1.206,0,0,1-1.165,1.165h-7.3a1.166,1.166,0,0,1-1.166-1.165Zm18.709,17.176a4.919,4.919,0,0,0,4.66-4.909,4.7,4.7,0,0,0-4.66-4.662H156.6v9.571Z" transform="translate(-2.18 -10.951)" style="fill:#fff"/><path d="M103.008,80.706V32.233a21.1,21.1,0,0,1,20.513-21.275,20.787,20.787,0,0,1,21.312,21.168,21.331,21.331,0,0,1-6.063,14.457" transform="translate(-2.18 -10.951)" style="fill:#b21a9d"/><path d="M124.119,15.2a17.34,17.34,0,0,1,10.957,4.222.785.785,0,0,1,.09,1.212l-3.547,3.772a.95.95,0,0,1-1.213.047,8.252,8.252,0,0,0-5.883-2.156,9.006,9.006,0,0,0,.045,18.01,10.628,10.628,0,0,0,4-.719v-2.6h-2.83a.817.817,0,0,1-.855-.81V31.73a.825.825,0,0,1,.855-.853h9.028a.845.845,0,0,1,.808.853l.045,12.081a1.114,1.114,0,0,1-.359.718,22.684,22.684,0,0,1-11.139,2.922,16.125,16.125,0,1,1,0-32.249" transform="translate(-2.18 -10.951)" style="fill:#f39fff"/></svg>