<svg id="Layer_1" data-name="Layer 1" xmlns="http://www.w3.org/2000/svg" xmlns:xlink="http://www.w3.org/1999/xlink" viewBox="0 0 1331.238 1526.879"><defs><style>.cls-1{fill:#812a7b;}.cls-2{fill:#8d45ca;}.cls-3{fill:#ad73db;}.cls-4{fill:#542779;}.cls-5{fill:#7537a4;}.cls-21,.cls-6{fill:#f39fff;}.cls-24,.cls-33,.cls-7{fill:#fff;}.cls-8{font-size:42px;font-family:BrandonGrotesque-Bold, Brandon Grotesque;font-weight:700;}.cls-18,.cls-20,.cls-8,.cls-9{fill:#f3d551;}.cls-9{opacity:0.57;}.cls-10{fill:#b576ff;}.cls-11{fill:#cd8dff;}.cls-12{fill:#ffd18f;}.cls-13{fill:#fffbab;}.cls-14{fill:#ffd742;}.cls-15{opacity:0.5;}.cls-16{fill:#e743ff;}.cls-17{fill:#662064;}.cls-17,.cls-18,.cls-19,.cls-21,.cls-42,.cls-43,.cls-44{fill-rule:evenodd;}.cls-19,.cls-23{fill:#81287a;}.cls-22{fill:#ffd257;}.cls-24{font-size:14px;}.cls-24,.cls-33{font-family:BrandonGrotesque-Medium, Brandon Grotesque;}.cls-25{letter-spacing:-0.01em;}.cls-26{letter-spacing:-0.006em;}.cls-27{letter-spacing:-0.007em;}.cls-28{letter-spacing:-0.009em;}.cls-29{letter-spacing:0em;}.cls-30{letter-spacing:-0.014em;}.cls-31{letter-spacing:0em;}.cls-32{letter-spacing:-0.004em;}.cls-33{font-size:13.493px;}.cls-34{letter-spacing:-0.003em;}.cls-35{letter-spacing:-0.026em;}.cls-36{letter-spacing:-0.014em;}.cls-37{letter-spacing:-0.003em;}.cls-38{letter-spacing:-0.034em;}.cls-39{letter-spacing:-0.05em;}.cls-40{letter-spacing:-0.004em;}.cls-41{letter-spacing:0em;}.cls-42{fill:url(#linear-gradient);}.cls-43{fill:url(#linear-gradient-2);}.cls-44{fill:url(#linear-gradient-3);}.cls-45{fill:url(#linear-gradient-4);}.cls-46{fill:url(#linear-gradient-5);}.cls-47{fill:url(#linear-gradient-6);}</style><linearGradient id="linear-gradient" x1="1135.009" y1="133.526" x2="1244.483" y2="133.526" gradientTransform="translate(-715.599 660.238) rotate(-1.9)" gradientUnits="userSpaceOnUse"><stop offset="0" stop-color="#f9d214"/><stop offset="0.159" stop-color="#f9d317"/><stop offset="0.287" stop-color="#f9d521"/><stop offset="0.405" stop-color="#f9d832"/><stop offset="0.516" stop-color="#f9dd4a"/><stop offset="0.621" stop-color="#f9e269"/><stop offset="0.701" stop-color="#f9e885"/></linearGradient><linearGradient id="linear-gradient-2" x1="1133.41" y1="123.886" x2="1227.336" y2="123.886" xlink:href="#linear-gradient"/><linearGradient id="linear-gradient-3" x1="1116.222" y1="114.57" x2="1226.097" y2="114.57" xlink:href="#linear-gradient"/><linearGradient id="linear-gradient-4" x1="1133.41" y1="116.957" x2="1213.961" y2="116.957" xlink:href="#linear-gradient"/><linearGradient id="linear-gradient-5" x1="1186.019" y1="117.283" x2="1209.013" y2="117.283" xlink:href="#linear-gradient"/><linearGradient id="linear-gradient-6" x1="1151.247" y1="117.202" x2="1174.316" y2="117.202" xlink:href="#linear-gradient"/></defs><title>instafuck</title><rect class="cls-1" width="1331.238" height="1526.879"/><path class="cls-2" d="M845.767,1301.605h19.725a16.477,16.477,0,0,0,16.48-16.48V1054.863a16.48,16.48,0,0,0-16.48-16.481H843.514Z"/><path class="cls-3" d="M844.766,1301.605H864.5a16.48,16.48,0,0,0,16.483-16.48V1054.863a16.483,16.483,0,0,0-16.483-16.481H842.514Z"/><path class="cls-4" d="M875.375,1093.326h3.05a.888.888,0,0,1,.888.888v17.041a.888.888,0,0,1-.888.888h-3.054a.886.886,0,0,1-.886-.886v-17.041A.89.89,0,0,1,875.375,1093.326Z" transform="translate(1753.797 2205.469) rotate(180)"/><path class="cls-4" d="M875.372,1116.8h3.053a.888.888,0,0,1,.888.888v17.037a.888.888,0,0,1-.888.888h-3.054a.886.886,0,0,1-.886-.886v-17.04A.887.887,0,0,1,875.372,1116.8Z" transform="translate(1753.797 2252.419) rotate(180)"/><path class="cls-4" d="M875.373,1074.18h3.052a.888.888,0,0,1,.888.888v8.713a.886.886,0,0,1-.886.886h-3.056a.886.886,0,0,1-.886-.886v-8.713A.888.888,0,0,1,875.373,1074.18Z" transform="translate(1753.797 2158.847) rotate(180)"/><path class="cls-5" d="M876.372,1093.326h3.056a.888.888,0,0,1,.888.888v17.041a.888.888,0,0,1-.888.888H876.37a.888.888,0,0,1-.888-.888v-17.039A.89.89,0,0,1,876.372,1093.326Z" transform="translate(1755.797 2205.469) rotate(180)"/><path class="cls-5" d="M876.369,1116.8h3.058a.888.888,0,0,1,.888.888v17.037a.888.888,0,0,1-.888.888H876.37a.888.888,0,0,1-.888-.888V1117.69A.887.887,0,0,1,876.369,1116.8Z" transform="translate(1755.797 2252.419) rotate(180)"/><path class="cls-5" d="M876.37,1074.18h3.057a.888.888,0,0,1,.888.888v8.713a.886.886,0,0,1-.886.886H876.37a.888.888,0,0,1-.888-.888v-8.711A.888.888,0,0,1,876.37,1074.18Z" transform="translate(1755.797 2158.847) rotate(180)"/><rect class="cls-2" x="867.49" y="1267.977" width="14.482" height="3.658" transform="translate(1749.461 2539.612) rotate(180)"/><rect class="cls-2" x="868.989" y="1061.864" width="12.983" height="3.656" transform="translate(1750.96 2127.385) rotate(180)"/><path class="cls-5" d="M857.37,1301.609a15.622,15.622,0,0,0,15.606-15.6V1053.983a15.622,15.622,0,0,0-15.606-15.6H759.729a15.619,15.619,0,0,0-15.6,15.6v232.023a15.619,15.619,0,0,0,15.6,15.6Z"/><path class="cls-4" d="M857.37,1298.085a12.1,12.1,0,0,0,12.081-12.079V1053.983a12.09,12.09,0,0,0-12.081-12.075H759.729a12.086,12.086,0,0,0-12.074,12.075v232.023a12.092,12.092,0,0,0,12.074,12.079Z"/><path class="cls-5" d="M749.164,1053.983a10.576,10.576,0,0,1,10.565-10.565H857.37a10.577,10.577,0,0,1,10.57,10.565v.253H749.164Z"/><path class="cls-6" d="M867.94,1054.236v231.77a10.578,10.578,0,0,1-10.57,10.569H759.729a10.577,10.577,0,0,1-10.565-10.569v-231.77Z"/><path class="cls-4" d="M841.891,1044.379h-.457a1.663,1.663,0,0,0-1.666,1.658v4.331a4.747,4.747,0,0,1-4.745,4.747H781.2a4.743,4.743,0,0,1-4.74-4.747v-4.331a1.663,1.663,0,0,0-1.669-1.658h-.455v-1.5h67.552Z"/><path class="cls-5" d="M800.932,1047.373h14.68a.431.431,0,0,1,.431.431v1.448a.433.433,0,0,1-.433.433H800.932a.433.433,0,0,1-.433-.433v-1.446A.433.433,0,0,1,800.932,1047.373Z" transform="translate(1616.541 2097.058) rotate(180)"/><path class="cls-2" d="M815.234,1049.184a.312.312,0,0,0,.31-.311v-.688a.31.31,0,0,0-.31-.311H801.311a.313.313,0,0,0-.317.311v.688a.316.316,0,0,0,.317.311Z"/><path class="cls-7" d="M777.335,1084.412h61.8a8.07,8.07,0,0,1,8.07,8.07v61.485a8.633,8.633,0,0,1-8.633,8.633H776.884a7.863,7.863,0,0,1-7.863-7.863v-62.01A8.314,8.314,0,0,1,777.335,1084.412Z" transform="translate(1616.23 2247.013) rotate(180)"/><path class="cls-3" d="M809.534,1094.767a.967.967,0,0,1,.963-.973h.892a.97.97,0,0,1,.969.973v.883a.971.971,0,0,0,.972.973h.892a.971.971,0,0,1,.966.97v3.724a.966.966,0,0,1-.966.964h-.892a.97.97,0,0,0-.972.969v1.862H810.5a.968.968,0,0,1-.963-.971Z"/><path class="cls-3" d="M802.009,1096.623a.97.97,0,0,1-.967-.973v-.883a.97.97,0,0,1,.967-.973h3.724a.966.966,0,0,1,.964.973v3.718a.968.968,0,0,1-.964.968h-1.865v-1.86a.969.969,0,0,0-.968-.97Z"/><path class="cls-3" d="M805.733,1102.281a.966.966,0,0,1,.964.969v.891a.967.967,0,0,1-.964.971h-1.865v-2.831Z"/><path class="cls-3" d="M801.042,1100.423a.967.967,0,0,1,.967-.97h1.859v2.828h-1.859a.966.966,0,0,1-.967-.964Z"/><path class="cls-3" d="M779.372,1093.794a.968.968,0,0,0-.968.973v17.869a.967.967,0,0,0,.968.967h17.87a.969.969,0,0,0,.968-.967v-17.869a.97.97,0,0,0-.968-.973h-17.87Zm1.858,3.8a.973.973,0,0,1,.975-.97h12.208a.968.968,0,0,1,.967.97V1109.8a.967.967,0,0,1-.967.971H782.205a.972.972,0,0,1-.975-.971Z"/><path class="cls-3" d="M785.029,1099.453h6.55a.971.971,0,0,1,.971.971v6.545a.973.973,0,0,1-.973.973h-6.545a.973.973,0,0,1-.973-.973v-6.546A.969.969,0,0,1,785.029,1099.453Z"/><path class="cls-3" d="M820.851,1133.415h-1.862a.964.964,0,0,0-.971.964v17.867a.973.973,0,0,0,.971.973H836.86a.973.973,0,0,0,.966-.973v-17.867a.964.964,0,0,0-.966-.964H820.851Zm0,3.79a.968.968,0,0,1,.97-.97h12.2a.974.974,0,0,1,.976.97v12.213a.971.971,0,0,1-.976.968h-12.2a.965.965,0,0,1-.97-.968Z"/><path class="cls-3" d="M824.645,1139.067H831.2a.968.968,0,0,1,.968.968v6.552a.971.971,0,0,1-.971.971h-6.546a.971.971,0,0,1-.971-.971v-6.55A.969.969,0,0,1,824.645,1139.067Z"/><path class="cls-3" d="M835,1113.6h1.858a.969.969,0,0,0,.966-.967v-17.869a.97.97,0,0,0-.966-.973H818.989a.97.97,0,0,0-.971.973v17.869a.969.969,0,0,0,.971.967H835Zm0-2.831H820.851v-14.149H835Z"/><path class="cls-3" d="M824.648,1099.453h6.545a.971.971,0,0,1,.971.971v6.548a.969.969,0,0,1-.969.969h-6.552a.968.968,0,0,1-.968-.968v-6.548A.973.973,0,0,1,824.648,1099.453Z"/><path class="cls-3" d="M806.7,1124.922v-1.862a.968.968,0,0,1,.975-.968h1.862v1.857a.978.978,0,0,1-.975.973Z"/><rect class="cls-3" x="803.868" y="1124.922" width="2.83" height="2.826"/><path class="cls-3" d="M798.21,1122.092h4.69a.964.964,0,0,1,.968.968v1.862H799.18a.974.974,0,0,1-.97-.973Z"/><path class="cls-3" d="M795.38,1120.228a.969.969,0,0,0-.967-.971h-3.721a.966.966,0,0,1-.971-.966v-.892a.974.974,0,0,1,.971-.97h6.55a.973.973,0,0,1,.968.97v4.693h-1.86a.972.972,0,0,1-.97-.973Z"/><path class="cls-3" d="M781.23,1117.4a.975.975,0,0,1,.975-.97h3.717a.975.975,0,0,1,.971.97v.892a.968.968,0,0,1-.971.966h-.889a.976.976,0,0,0-.973.971v1.864h-1.855a.968.968,0,0,0-.975.968v.889a.976.976,0,0,0,.975.973h1.855v1.857a.965.965,0,0,1-.968.969h-3.72a.965.965,0,0,1-.968-.969v-6.551a.97.97,0,0,1,.968-.971h.894a.963.963,0,0,0,.964-.966Z"/><path class="cls-3" d="M786.893,1122.092h1.862a.965.965,0,0,1,.966.968v4.688h-1.862a.966.966,0,0,1-.966-.969v-.887a.971.971,0,0,0-.971-.97H784.06v-2.83Z"/><path class="cls-3" d="M778.4,1131.549a.967.967,0,0,1,.968-.969h.894a.966.966,0,0,1,.964.969v1.866h-1.858a.973.973,0,0,1-.968-.979Z"/><path class="cls-3" d="M786.893,1136.235h-4.688a.97.97,0,0,1-.975-.964v-1.856h1.862a.973.973,0,0,0,.968-.979v-.887a.973.973,0,0,1,.973-.969h.889a.971.971,0,0,1,.971.969v.887a.974.974,0,0,0,.966.979h1.862v2.82Z"/><path class="cls-3" d="M792.551,1129.61a.972.972,0,0,0,.967.97h1.862v7.517a.968.968,0,0,0,.97.97h1.86v1.86a.969.969,0,0,1-.968.971h-.892a.971.971,0,0,0-.97.97v.891a.963.963,0,0,1-.967.965h-1.862v-1.856a.969.969,0,0,0-.972-.97h-1.858v-5.663h1.858a.967.967,0,0,0,.972-.964v-.892a.962.962,0,0,0-.972-.964h-1.858v-5.667h1.858a.971.971,0,0,1,.972.97Z"/><path class="cls-3" d="M792.551,1146.586a.971.971,0,0,1-.972.972h-.887a.973.973,0,0,1-.971-.972v-1.862h2.83Z"/><path class="cls-3" d="M787.859,1144.724a.97.97,0,0,0-.966.974v.888a.974.974,0,0,1-.971.972h-.889a.976.976,0,0,1-.973-.972v-.888a.969.969,0,0,0-.968-.974h-.887a.973.973,0,0,0-.975.974v.888a.969.969,0,0,1-.964.972h-.894a.97.97,0,0,1-.968-.972v-6.55a.967.967,0,0,1,.968-.969h.894a.966.966,0,0,1,.964.969v.891a.972.972,0,0,0,.975.971h7.516v2.826Z"/><path class="cls-3" d="M784.06,1152.246a.97.97,0,0,1-.968.973h-.887a.975.975,0,0,1-.975-.973v-.891a.971.971,0,0,1,.975-.969h.887a.967.967,0,0,1,.968.969Z"/><path class="cls-3" d="M789.721,1152.246a.972.972,0,0,1-.966.973h-.9a.971.971,0,0,1-.966-.973v-.891a.968.968,0,0,1,.966-.969h.9a.969.969,0,0,1,.966.969Z"/><path class="cls-3" d="M793.518,1153.219a.975.975,0,0,1-.967-.973v-.891a.971.971,0,0,1,.967-.969h1.862v1.86a.97.97,0,0,1-.967.973Z"/><path class="cls-3" d="M795.38,1150.386v-1.862a.969.969,0,0,1,.97-.966h4.692v2.828Z"/><path class="cls-3" d="M801.042,1147.558v-1.86a.971.971,0,0,1,.967-.974h1.859v1.862a.97.97,0,0,1-.968.972Z"/><path class="cls-3" d="M814.222,1141.9a.969.969,0,0,1,.966.97v.891a.965.965,0,0,1-.966.965h-1.864V1141.9Z"/><path class="cls-3" d="M798.21,1134.379a.964.964,0,0,1,.97-.964h.892a.965.965,0,0,1,.97.964v.892a.968.968,0,0,0,.967.964h3.724a.965.965,0,0,0,.964-.964v-.892a.96.96,0,0,0-.964-.964h-.894a.978.978,0,0,1-.971-.979v-1.856h1.865a.966.966,0,0,0,.964-.97v-1.862h5.661v1.862a.971.971,0,0,0,.972.97h1.858v4.691a.968.968,0,0,1-.966.964h-.892a.971.971,0,0,0-.972.97v4.693h-2.824v-1.862a.973.973,0,0,0-.975-.969h-.887a.971.971,0,0,0-.975.969v.891a.972.972,0,0,0,.975.971h1.862v1.861a.963.963,0,0,0,.963.965h1.861v1.862a.974.974,0,0,0,.972.972h.892a.968.968,0,0,1,.966.966v3.722a.972.972,0,0,1-.966.973h-.892a.974.974,0,0,1-.972-.973v-.891a.969.969,0,0,0-.969-.969H810.5a.966.966,0,0,0-.963.969v.891a.976.976,0,0,1-.975.973h-6.55a.972.972,0,0,1-.967-.973v-1.86h4.691a.963.963,0,0,0,.964-.968v-3.72a.967.967,0,0,0-.964-.974h-1.865v-4.688a.967.967,0,0,0-.968-.969h-4.69v-4.688Z"/><path class="cls-3" d="M797.242,1127.748a.972.972,0,0,1,.968.97v.892a.97.97,0,0,1-.968.97H795.38v-1.862a.973.973,0,0,1,.97-.97Z"/><path class="cls-3" d="M802.009,1130.58a.97.97,0,0,1-.967-.97v-.892a.972.972,0,0,1,.967-.97h1.859v2.832Z"/><path class="cls-3" d="M820.851,1127.748v1.862a.974.974,0,0,1-.975.97h-4.688v-2.832Z"/><path class="cls-3" d="M816.156,1124.922a.967.967,0,0,0-.968.97v1.856h-2.83v-4.688a.966.966,0,0,0-.969-.968h-1.855v-1.864a.976.976,0,0,0-.975-.971h-.887a.968.968,0,0,1-.975-.966v-.892a.97.97,0,0,0-.964-.97h-3.724a.966.966,0,0,1-.967-.969v-9.378a.97.97,0,0,1,.967-.97h1.859v1.857a.973.973,0,0,0,.971.973h.894a.965.965,0,0,1,.964.968v1.862h-1.858a.972.972,0,0,0-.971.966v.9a.972.972,0,0,0,.971.967h.894a.965.965,0,0,0,.964-.967v-1.864h1.862a.972.972,0,0,1,.975.966v.9a.966.966,0,0,0,.963.967h.892a.969.969,0,0,0,.969-.967v-7.524h1.864a.969.969,0,0,1,.966.97v10.347H813.33a.975.975,0,0,0-.972.97v.892a.967.967,0,0,0,.972.966h.892a.965.965,0,0,0,.966-.966v-1.862h4.688a.977.977,0,0,1,.975.97v1.858h-1.862a.973.973,0,0,0-.971.971v.891a.972.972,0,0,0,.971.973h.887a.975.975,0,0,0,.975-.973v-1.862h4.688a.967.967,0,0,0,.97-.966v-.892a.97.97,0,0,1,.967-.97h.895a.97.97,0,0,1,.964.97v.892a.97.97,0,0,0,.975.966h.887a.964.964,0,0,0,.968-.966v-.892a.974.974,0,0,1,.974-.97h3.721a.973.973,0,0,1,.966.97v.892a.966.966,0,0,1-.966.966h-.9a.968.968,0,0,0-.962.971v.891a.975.975,0,0,1-.976.973h-.887a.967.967,0,0,0-.974.968v.889a.972.972,0,0,1-.968.973h-.887a.973.973,0,0,0-.975.97v.887a.964.964,0,0,1-.964.969h-1.862v-4.688a.967.967,0,0,0-.97-.968h-.892a.967.967,0,0,0-.972.968v4.688h-2.824v-1.856a.973.973,0,0,0-.975-.97Z"/><path class="cls-3" d="M826.509,1129.61a.971.971,0,0,1-.97.97h-.892a.971.971,0,0,1-.972-.97v-1.862h2.834Z"/><path class="cls-3" d="M813.651,1258.793h1.436"/><text class="cls-8" transform="translate(894.07 1150.386)">5</text><path class="cls-9" d="M848.449,1076.551H769.727a8.952,8.952,0,0,0-3.159.581l-98.231,5.477-1.578,30.055,97.45,58.191a8.324,8.324,0,0,0,1.286.768l.056.034h.014a8.366,8.366,0,0,0,3.576.807h78.838a8.665,8.665,0,0,0,8.665-8.665v-79.054A8.2,8.2,0,0,0,848.449,1076.551Z"/><path class="cls-2" d="M655.553,1364.624h22.082a18.455,18.455,0,0,0,18.461-18.448v-257.77a18.457,18.457,0,0,0-18.461-18.45h-24.6Z"/><path class="cls-3" d="M654.435,1364.624h22.086a18.45,18.45,0,0,0,18.45-18.448v-257.77a18.452,18.452,0,0,0-18.45-18.45h-24.6Z"/><path class="cls-4" d="M688.69,1131.459h3.42a.994.994,0,0,1,.994.994v19.073a.994.994,0,0,1-.994.994H688.7a.994.994,0,0,1-.994-.994v-19.079A.988.988,0,0,1,688.69,1131.459Z" transform="translate(1380.807 2283.98) rotate(180)"/><path class="cls-4" d="M688.69,1157.738h3.422a.992.992,0,0,1,.992.992v19.079a.994.994,0,0,1-.994.994H688.7a.994.994,0,0,1-.994-.994v-19.082A.988.988,0,0,1,688.69,1157.738Z" transform="translate(1380.807 2336.542) rotate(180)"/><path class="cls-4" d="M688.69,1110.026h3.418a1,1,0,0,1,1,1v9.755a.994.994,0,0,1-.994.994h-3.416a.992.992,0,0,1-.992-.992v-9.765A.988.988,0,0,1,688.69,1110.026Z" transform="translate(1380.807 2231.798) rotate(180)"/><path class="cls-5" d="M689.812,1131.459h3.422a.992.992,0,0,1,.992.992v19.075a.994.994,0,0,1-.994.994h-3.418a.994.994,0,0,1-.994-.994v-19.075A.992.992,0,0,1,689.812,1131.459Z" transform="translate(1383.047 2283.98) rotate(180)"/><path class="cls-5" d="M689.812,1157.738h3.422a.992.992,0,0,1,.992.992v19.079a.994.994,0,0,1-.994.994h-3.418a.994.994,0,0,1-.994-.994V1158.73A.992.992,0,0,1,689.812,1157.738Z" transform="translate(1383.047 2336.542) rotate(180)"/><path class="cls-5" d="M689.816,1110.026h3.418a.992.992,0,0,1,.992.992v9.761a.992.992,0,0,1-.992.992h-3.42a.994.994,0,0,1-.994-.994v-9.755A1,1,0,0,1,689.816,1110.026Z" transform="translate(1383.047 2231.798) rotate(180)"/><rect class="cls-2" x="679.877" y="1326.977" width="16.219" height="4.096" transform="translate(1375.972 2658.05) rotate(180)"/><rect class="cls-2" x="681.554" y="1096.238" width="14.542" height="4.098" transform="translate(1377.649 2196.575) rotate(180)"/><path class="cls-5" d="M559.244,1069.956h109.3a17.468,17.468,0,0,1,17.468,17.468v259.734a17.465,17.465,0,0,1-17.465,17.465H559.242a17.464,17.464,0,0,1-17.464-17.464V1087.421A17.466,17.466,0,0,1,559.244,1069.956Z"/><path class="cls-4" d="M559.244,1073.9h109.3a13.521,13.521,0,0,1,13.521,13.521v259.734a13.522,13.522,0,0,1-13.522,13.522H559.242a13.521,13.521,0,0,1-13.521-13.521V1087.425A13.523,13.523,0,0,1,559.244,1073.9Z"/><path class="cls-5" d="M547.411,1087.423a11.845,11.845,0,0,1,11.832-11.831h109.3a11.846,11.846,0,0,1,11.833,11.831v.283H547.411Z"/><path class="cls-10" d="M680.379,1087.706v259.453a11.846,11.846,0,0,1-11.833,11.831h-109.3a11.845,11.845,0,0,1-11.832-11.831V1087.706Z"/><path class="cls-4" d="M651.505,1075.592h-.517a1.874,1.874,0,0,0-1.876,1.88v4.882a5.356,5.356,0,0,1-5.356,5.352H583.045a5.351,5.351,0,0,1-5.349-5.352v-4.882a1.878,1.878,0,0,0-1.881-1.88H575.3v-1.69h76.205Z"/><path class="cls-5" d="M605.3,1078.971h16.567a.485.485,0,0,1,.485.485v1.637a.485.485,0,0,1-.485.485H605.3a.484.484,0,0,1-.484-.484v-1.638A.485.485,0,0,1,605.3,1078.971Z" transform="translate(1227.162 2160.55) rotate(180)"/><path class="cls-2" d="M605.726,1079.536h15.7a.353.353,0,0,1,.353.353v.772a.353.353,0,0,1-.353.353h-15.7a.353.353,0,0,1-.353-.353v-.773A.351.351,0,0,1,605.726,1079.536Z"/><path class="cls-11" d="M573.3,1143.169v-5.225a13.208,13.208,0,0,1,13.2-13.2h5.222v-11.593H586.5a24.819,24.819,0,0,0-24.793,24.789v5.225Z"/><path class="cls-11" d="M665.1,1143.169v-5.225a24.817,24.817,0,0,0-24.789-24.789h-5.226v11.593h5.226a13.209,13.209,0,0,1,13.192,13.2v5.225Z"/><path class="cls-11" d="M591.721,1216.544v-11.6H586.5a13.21,13.21,0,0,1-13.2-13.2v-5.223h-11.6v5.223a24.82,24.82,0,0,0,24.793,24.793Z"/><path class="cls-11" d="M640.307,1216.544a24.818,24.818,0,0,0,24.789-24.793v-5.223H653.5v5.223a13.21,13.21,0,0,1-13.192,13.2h-5.226v11.6Z"/><path class="cls-7" d="M578.608,1120.75h69.857a9.034,9.034,0,0,1,9.034,9.034v69.495a9.666,9.666,0,0,1-9.666,9.666H578.107a8.806,8.806,0,0,1-8.806-8.806v-70.083A9.307,9.307,0,0,1,578.608,1120.75Z" transform="translate(1226.801 2329.695) rotate(180)"/><path class="cls-3" d="M615,1132.428a1.1,1.1,0,0,1,1.094-1.1H617.1a1.1,1.1,0,0,1,1.091,1.1v1a1.093,1.093,0,0,0,1.1,1.093h1a1.1,1.1,0,0,1,1.093,1.1v4.2a1.091,1.091,0,0,1-1.093,1.091h-1a1.1,1.1,0,0,0-1.1,1.094v2.1h-2.1A1.1,1.1,0,0,1,615,1143Z"/><path class="cls-3" d="M606.516,1134.522a1.089,1.089,0,0,1-1.093-1.093v-1a1.1,1.1,0,0,1,1.093-1.1h4.194a1.1,1.1,0,0,1,1.093,1.1v4.194a1.091,1.091,0,0,1-1.093,1.093h-2.1v-2.1a1.1,1.1,0,0,0-1.093-1.1Z"/><path class="cls-3" d="M610.71,1140.908A1.091,1.091,0,0,1,611.8,1142v1a1.093,1.093,0,0,1-1.093,1.1h-2.1v-3.2Z"/><path class="cls-3" d="M605.423,1138.812a1.1,1.1,0,0,1,1.093-1.1h2.1v3.193h-2.1a1.091,1.091,0,0,1-1.093-1.091Z"/><path class="cls-3" d="M580.98,1131.331a1.1,1.1,0,0,0-1.092,1.1v20.157a1.093,1.093,0,0,0,1.092,1.091h20.155a1.1,1.1,0,0,0,1.1-1.091v-20.157a1.1,1.1,0,0,0-1.1-1.1H580.98Zm2.1,4.287a1.1,1.1,0,0,1,1.1-1.1h13.77a1.1,1.1,0,0,1,1.1,1.1v13.772a1.092,1.092,0,0,1-1.1,1.093h-13.77a1.1,1.1,0,0,1-1.1-1.093Z"/><path class="cls-3" d="M586.269,1138.812a1.1,1.1,0,0,1,1.1-1.1h7.386a1.1,1.1,0,0,1,1.094,1.1v7.389a1.094,1.094,0,0,1-1.094,1.091h-7.386a1.094,1.094,0,0,1-1.1-1.091Z"/><path class="cls-3" d="M627.766,1176.017h-2.1a1.1,1.1,0,0,0-1.092,1.1v20.156a1.093,1.093,0,0,0,1.092,1.092h20.158a1.093,1.093,0,0,0,1.1-1.092v-20.156a1.1,1.1,0,0,0-1.1-1.1H627.766Zm0,4.288a1.1,1.1,0,0,1,1.093-1.1h13.775a1.094,1.094,0,0,1,1.091,1.1v13.773a1.1,1.1,0,0,1-1.091,1.1H628.859a1.1,1.1,0,0,1-1.093-1.1Z"/><path class="cls-3" d="M630.955,1183.5a1.1,1.1,0,0,1,1.1-1.093h7.387a1.1,1.1,0,0,1,1.1,1.093v7.39a1.093,1.093,0,0,1-1.1,1.09h-7.387a1.092,1.092,0,0,1-1.1-1.09Z"/><path class="cls-3" d="M643.725,1153.676h2.1a1.094,1.094,0,0,0,1.1-1.091v-20.157a1.1,1.1,0,0,0-1.1-1.1H625.665a1.1,1.1,0,0,0-1.092,1.1v20.157a1.094,1.094,0,0,0,1.092,1.091h18.06Zm0-3.193H627.766v-15.961h15.959Z"/><path class="cls-3" d="M640.536,1146.2a1.1,1.1,0,0,1-1.1,1.091h-7.387a1.094,1.094,0,0,1-1.1-1.091v-7.389a1.1,1.1,0,0,1,1.1-1.1h7.387a1.1,1.1,0,0,1,1.1,1.1Z"/><path class="cls-3" d="M611.8,1166.446v-2.1a1.1,1.1,0,0,1,1.1-1.091H615v2.1a1.1,1.1,0,0,1-1.1,1.095Z"/><rect class="cls-3" x="608.614" y="1166.446" width="3.189" height="3.189"/><path class="cls-3" d="M602.232,1163.253h5.289a1.093,1.093,0,0,1,1.093,1.091v2.1h-5.29a1.1,1.1,0,0,1-1.092-1.095Z"/><path class="cls-3" d="M599.039,1161.151a1.1,1.1,0,0,0-1.1-1.091h-4.2a1.093,1.093,0,0,1-1.092-1.093v-1.008a1.1,1.1,0,0,1,1.092-1.094h7.388a1.1,1.1,0,0,1,1.1,1.094v5.294h-2.1a1.1,1.1,0,0,1-1.094-1.093Z"/><path class="cls-3" d="M583.075,1157.959a1.1,1.1,0,0,1,1.1-1.094h4.2a1.1,1.1,0,0,1,1.094,1.094v1.008a1.092,1.092,0,0,1-1.094,1.093h-1a1.1,1.1,0,0,0-1.1,1.091v2.1h-2.1a1.1,1.1,0,0,0-1.1,1.091v1.007a1.1,1.1,0,0,0,1.1,1.095h2.1v2.092a1.092,1.092,0,0,1-1.093,1.1h-4.2a1.092,1.092,0,0,1-1.092-1.1v-7.387a1.094,1.094,0,0,1,1.092-1.091h1.006a1.089,1.089,0,0,0,1.089-1.093Z"/><path class="cls-3" d="M589.463,1163.253h2.1a1.09,1.09,0,0,1,1.091,1.091v5.291h-2.1a1.094,1.094,0,0,1-1.093-1.1v-1a1.091,1.091,0,0,0-1.094-1.093h-2.1v-3.193Z"/><path class="cls-3" d="M579.888,1173.921a1.089,1.089,0,0,1,1.092-1.091h1.006a1.086,1.086,0,0,1,1.089,1.091v2.1h-2.1a1.091,1.091,0,0,1-1.092-1.093Z"/><path class="cls-3" d="M589.463,1179.21h-5.289a1.1,1.1,0,0,1-1.1-1.091v-2.1h2.1a1.091,1.091,0,0,0,1.093-1.093v-1a1.092,1.092,0,0,1,1.1-1.091h1a1.089,1.089,0,0,1,1.094,1.091v1a1.093,1.093,0,0,0,1.093,1.093h2.1v3.193Z"/><path class="cls-3" d="M595.847,1171.731a1.1,1.1,0,0,0,1.093,1.1h2.1v8.481a1.091,1.091,0,0,0,1.094,1.092h2.1v2.1a1.092,1.092,0,0,1-1.1,1.093h-1a1.093,1.093,0,0,0-1.094,1.091v1.009a1.092,1.092,0,0,1-1.1,1.093h-2.1v-2.1a1.1,1.1,0,0,0-1.094-1.091h-2.1v-6.384h2.1a1.1,1.1,0,0,0,1.094-1.091v-1a1.1,1.1,0,0,0-1.094-1.1h-2.1v-6.382h2.1a1.1,1.1,0,0,1,1.094,1.093Z"/><path class="cls-3" d="M595.847,1190.886a1.092,1.092,0,0,1-1.094,1.09h-1.006a1.09,1.09,0,0,1-1.092-1.09v-2.1h3.192Z"/><path class="cls-3" d="M590.556,1188.787a1.094,1.094,0,0,0-1.093,1.091v1.008a1.09,1.09,0,0,1-1.094,1.09h-1a1.092,1.092,0,0,1-1.1-1.09v-1.008a1.091,1.091,0,0,0-1.093-1.091h-1a1.1,1.1,0,0,0-1.1,1.091v1.008a1.087,1.087,0,0,1-1.089,1.09H580.98a1.09,1.09,0,0,1-1.092-1.09v-7.39a1.092,1.092,0,0,1,1.092-1.093h1.006a1.089,1.089,0,0,1,1.089,1.093v1a1.093,1.093,0,0,0,1.1,1.093h8.481v3.193Z"/><path class="cls-3" d="M586.269,1197.27a1.091,1.091,0,0,1-1.093,1.092h-1a1.1,1.1,0,0,1-1.1-1.092v-1a1.1,1.1,0,0,1,1.1-1.093h1a1.091,1.091,0,0,1,1.093,1.093Z"/><path class="cls-3" d="M590.555,1195.173h1.008a1.092,1.092,0,0,1,1.092,1.092v1a1.093,1.093,0,0,1-1.093,1.093h-1.007a1.091,1.091,0,0,1-1.091-1.091v-1.006A1.091,1.091,0,0,1,590.555,1195.173Z"/><path class="cls-3" d="M596.94,1198.362a1.09,1.09,0,0,1-1.093-1.092v-1a1.09,1.09,0,0,1,1.093-1.093h2.1v2.1a1.092,1.092,0,0,1-1.1,1.092Z"/><path class="cls-3" d="M599.039,1195.173v-2.1a1.094,1.094,0,0,1,1.094-1.1h5.29v3.2Z"/><path class="cls-3" d="M605.423,1191.976v-2.1a1.091,1.091,0,0,1,1.093-1.091h2.1v2.1a1.091,1.091,0,0,1-1.093,1.09Z"/><path class="cls-3" d="M620.287,1185.594a1.092,1.092,0,0,1,1.093,1.091v1.009a1.091,1.091,0,0,1-1.093,1.093h-2.1v-3.193Z"/><path class="cls-3" d="M602.232,1177.114a1.1,1.1,0,0,1,1.092-1.1h1a1.1,1.1,0,0,1,1.1,1.1v1a1.093,1.093,0,0,0,1.093,1.091h4.194a1.092,1.092,0,0,0,1.093-1.091v-1a1.1,1.1,0,0,0-1.093-1.1h-1a1.09,1.09,0,0,1-1.095-1.093v-2.094h2.1a1.1,1.1,0,0,0,1.093-1.1v-2.1h6.386v2.1a1.1,1.1,0,0,0,1.1,1.1h2.094v5.289a1.092,1.092,0,0,1-1.093,1.091h-1a1.1,1.1,0,0,0-1.1,1.1v5.289H615v-2.1a1.092,1.092,0,0,0-1.1-1.093h-1a1.1,1.1,0,0,0-1.1,1.093v1a1.094,1.094,0,0,0,1.1,1.093H615v2.1a1.094,1.094,0,0,0,1.094,1.093h2.1v2.1a1.093,1.093,0,0,0,1.1,1.09h1a1.093,1.093,0,0,1,1.093,1.1v4.2a1.09,1.09,0,0,1-1.093,1.092h-1a1.094,1.094,0,0,1-1.1-1.092v-1a1.092,1.092,0,0,0-1.091-1.093H616.09a1.093,1.093,0,0,0-1.094,1.093v1a1.091,1.091,0,0,1-1.1,1.092h-7.383a1.091,1.091,0,0,1-1.093-1.092v-2.1h5.287a1.1,1.1,0,0,0,1.093-1.1v-4.2a1.091,1.091,0,0,0-1.093-1.091h-2.1V1183.5a1.094,1.094,0,0,0-1.093-1.093h-5.289v-5.289Z"/><path class="cls-3" d="M601.135,1169.635a1.1,1.1,0,0,1,1.1,1.093v1a1.1,1.1,0,0,1-1.1,1.1h-2.1v-2.1a1.093,1.093,0,0,1,1.094-1.093Z"/><path class="cls-3" d="M606.516,1172.83a1.1,1.1,0,0,1-1.093-1.1v-1a1.093,1.093,0,0,1,1.093-1.093h2.1v3.195Z"/><path class="cls-3" d="M627.766,1169.635v2.1a1.1,1.1,0,0,1-1.1,1.1H621.38v-3.195Z"/><path class="cls-3" d="M622.472,1166.446a1.092,1.092,0,0,0-1.092,1.093v2.1h-3.191v-5.291a1.093,1.093,0,0,0-1.091-1.091H615v-2.1a1.094,1.094,0,0,0-1.1-1.091h-1a1.1,1.1,0,0,1-1.1-1.093v-1.008a1.094,1.094,0,0,0-1.093-1.094h-4.194a1.087,1.087,0,0,1-1.093-1.091v-10.58a1.09,1.09,0,0,1,1.093-1.091h2.1v2.1a1.091,1.091,0,0,0,1.095,1.091h1a1.09,1.09,0,0,1,1.093,1.1v2.1h-2.094a1.092,1.092,0,0,0-1.095,1.1v1.007a1.092,1.092,0,0,0,1.095,1.091h1a1.092,1.092,0,0,0,1.093-1.091v-2.1h2.1a1.093,1.093,0,0,1,1.1,1.1v1.007a1.1,1.1,0,0,0,1.094,1.091H617.1a1.094,1.094,0,0,0,1.091-1.091V1144.1h2.1a1.089,1.089,0,0,1,1.093,1.091v11.671h-2.094a1.1,1.1,0,0,0-1.1,1.094v1.008a1.1,1.1,0,0,0,1.1,1.093h1a1.091,1.091,0,0,0,1.093-1.093v-2.1h5.289a1.1,1.1,0,0,1,1.1,1.094v2.1h-2.1a1.1,1.1,0,0,0-1.092,1.091v1.009a1.1,1.1,0,0,0,1.092,1.093h1a1.1,1.1,0,0,0,1.1-1.093v-2.1h5.291a1.087,1.087,0,0,0,1.087-1.093v-1.008a1.1,1.1,0,0,1,1.1-1.094h1.009a1.093,1.093,0,0,1,1.089,1.094v1.008a1.094,1.094,0,0,0,1.095,1.093h1a1.1,1.1,0,0,0,1.1-1.093v-1.008a1.093,1.093,0,0,1,1.087-1.094h4.2a1.1,1.1,0,0,1,1.1,1.094v1.008a1.094,1.094,0,0,1-1.1,1.093h-1a1.093,1.093,0,0,0-1.093,1.091v1.009a1.094,1.094,0,0,1-1.091,1.093h-1.011a1.09,1.09,0,0,0-1.087,1.091v1.007a1.1,1.1,0,0,1-1.1,1.095h-1a1.093,1.093,0,0,0-1.095,1.093v1a1.09,1.09,0,0,1-1.089,1.1h-2.106v-5.291a1.086,1.086,0,0,0-1.087-1.091h-1a1.094,1.094,0,0,0-1.1,1.091v5.291h-3.189v-2.1a1.093,1.093,0,0,0-1.1-1.093Z"/><path class="cls-3" d="M634.144,1171.731a1.091,1.091,0,0,1-1.087,1.1h-1a1.1,1.1,0,0,1-1.1-1.1v-2.1h3.189Z"/><path class="cls-12" d="M586.2,1331.94a15.327,15.327,0,1,1,0-30.653h55.53a15.327,15.327,0,0,1,0,30.653Z"/><path class="cls-13" d="M586.2,1329.541a12.929,12.929,0,1,1,0-25.858h55.53a12.929,12.929,0,0,1,0,25.858Z"/><path class="cls-14" d="M641.734,1305.287H586.2a11.328,11.328,0,1,0,0,22.655h55.53a11.328,11.328,0,1,0,0-22.655Z"/><path class="cls-3" d="M592.67,1317.165a3.555,3.555,0,0,1-1.13-.465,2.049,2.049,0,0,1-.957-1.683,1.971,1.971,0,0,1,.542-1.527,2.584,2.584,0,0,1,1.734-.731,3.691,3.691,0,0,1,2.24.744l.245.157-.781,1.269-.262-.17a2.324,2.324,0,0,0-1.442-.512,1.115,1.115,0,0,0-.66.277.548.548,0,0,0-.129.427c.013.384.279.6.96.768.085.024.152.039.215.061a3.988,3.988,0,0,1,1.652.988,2.174,2.174,0,0,1,.584,1.462,2.332,2.332,0,0,1-2.31,2.252,4.45,4.45,0,0,1-1.311-.183,4.132,4.132,0,0,1-1.778-1.13l1.085-1.025a2.578,2.578,0,0,0,2,.846.826.826,0,0,0,.823-.76c0-.4-.463-.775-1.241-1.039l-.031-.015Z"/><path class="cls-3" d="M601.946,1314.677a2.331,2.331,0,1,0,.085,3.808l.96,1.1a3.862,3.862,0,1,1-.088-6.022Z"/><path class="cls-3" d="M608.987,1318.947H605.9l-.7,1.383h-1.677l3.808-7.468h.438l3.525,7.468h-1.653Zm-.7-1.492-.776-1.664-.846,1.664Z"/><path class="cls-3" d="M617.722,1320.33l-4.2-4.356v4.356h-1.487v-7.468h.464l4.121,4.177v-4.177h1.5v7.468Z"/><path class="cls-3" d="M628.473,1320.33v-4.572l-2.149,1.952-2.139-1.952v4.572H622.7v-7.468h.506l3.121,2.833,3.113-2.833h.521v7.468Z"/><path class="cls-3" d="M636.318,1314.354h-3.483v1.378h2.875v1.487h-2.875v1.619h3.45v1.492h-4.942v-7.468h4.975Z"/><path class="cls-14" d="M791.9,270.417a4.22,4.22,0,0,1,4.215-4.23h0a4.223,4.223,0,0,1,4.232,4.23h0a4.226,4.226,0,0,1-4.232,4.23h0A4.223,4.223,0,0,1,791.9,270.417Zm-16.927,0a4.226,4.226,0,0,1,4.232-4.23h0a4.231,4.231,0,0,1,4.23,4.23h0a4.234,4.234,0,0,1-4.23,4.23h0A4.228,4.228,0,0,1,774.971,270.417Zm-16.921,0a4.222,4.222,0,0,1,4.23-4.23h0a4.235,4.235,0,0,1,4.232,4.23h0a4.238,4.238,0,0,1-4.232,4.23h0A4.224,4.224,0,0,1,758.05,270.417Zm-16.923,0a4.223,4.223,0,0,1,4.23-4.23h0a4.232,4.232,0,0,1,4.231,4.23h0a4.235,4.235,0,0,1-4.231,4.23h0A4.225,4.225,0,0,1,741.127,270.417Zm-16.927,0a4.226,4.226,0,0,1,4.235-4.23h0a4.235,4.235,0,0,1,4.23,4.23h0a4.237,4.237,0,0,1-4.23,4.23h0A4.229,4.229,0,0,1,724.2,270.417Zm-16.921,0a4.222,4.222,0,0,1,4.23-4.23h0a4.231,4.231,0,0,1,4.23,4.23h0a4.234,4.234,0,0,1-4.23,4.23h0A4.224,4.224,0,0,1,707.279,270.417Z"/><path class="cls-14" d="M831.935,742.148a4.236,4.236,0,0,1,4.23-4.234h0a4.228,4.228,0,0,1,4.235,4.234h0a4.24,4.24,0,0,1-4.235,4.231h0A4.248,4.248,0,0,1,831.935,742.148Zm-16.923,0a4.234,4.234,0,0,1,4.232-4.234h0a4.225,4.225,0,0,1,4.23,4.234h0a4.237,4.237,0,0,1-4.23,4.231h0A4.246,4.246,0,0,1,815.012,742.148Zm-16.927,0a4.237,4.237,0,0,1,4.232-4.234h0a4.227,4.227,0,0,1,4.234,4.234h0a4.239,4.239,0,0,1-4.234,4.231h0A4.249,4.249,0,0,1,798.085,742.148Zm-16.917,0a4.232,4.232,0,0,1,4.23-4.234h0a4.22,4.22,0,0,1,4.226,4.234h0a4.232,4.232,0,0,1-4.226,4.231h0A4.245,4.245,0,0,1,781.168,742.148Zm-16.927,0a4.234,4.234,0,0,1,4.23-4.234h0a4.222,4.222,0,0,1,4.231,4.234h0a4.234,4.234,0,0,1-4.231,4.231h0A4.246,4.246,0,0,1,764.241,742.148Zm-16.923,0a4.234,4.234,0,0,1,4.231-4.234h0a4.224,4.224,0,0,1,4.23,4.234h0a4.236,4.236,0,0,1-4.23,4.231h0A4.246,4.246,0,0,1,747.318,742.148Zm-16.927,0a4.234,4.234,0,0,1,4.232-4.234h0a4.226,4.226,0,0,1,4.233,4.234h0a4.238,4.238,0,0,1-4.233,4.231h0A4.246,4.246,0,0,1,730.391,742.148Zm-16.925,0a4.236,4.236,0,0,1,4.233-4.234h0a4.227,4.227,0,0,1,4.232,4.234h0a4.239,4.239,0,0,1-4.232,4.231h0A4.248,4.248,0,0,1,713.466,742.148Zm-16.923,0a4.234,4.234,0,0,1,4.23-4.234h0A4.224,4.224,0,0,1,705,742.148h0a4.236,4.236,0,0,1-4.231,4.231h0A4.246,4.246,0,0,1,696.543,742.148Zm-16.923,0a4.225,4.225,0,0,1,4.235-4.234h0a4.222,4.222,0,0,1,4.226,4.234h0a4.234,4.234,0,0,1-4.226,4.231h0A4.237,4.237,0,0,1,679.62,742.148Zm-16.923,0a4.224,4.224,0,0,1,4.231-4.234h0a4.223,4.223,0,0,1,4.23,4.234h0a4.235,4.235,0,0,1-4.23,4.231h0A4.236,4.236,0,0,1,662.7,742.148Zm-16.922,0A4.223,4.223,0,0,1,650,737.914h0a4.222,4.222,0,0,1,4.231,4.234h0A4.234,4.234,0,0,1,650,746.379h0A4.235,4.235,0,0,1,645.775,742.148Zm-16.926,0a4.223,4.223,0,0,1,4.226-4.234h0a4.225,4.225,0,0,1,4.235,4.234h0a4.237,4.237,0,0,1-4.235,4.231h0A4.235,4.235,0,0,1,628.849,742.148Zm-16.927,0a4.228,4.228,0,0,1,4.235-4.234h0a4.223,4.223,0,0,1,4.23,4.234h0a4.236,4.236,0,0,1-4.23,4.231h0A4.24,4.24,0,0,1,611.922,742.148Zm-16.925,0a4.237,4.237,0,0,1,4.235-4.234h0a4.227,4.227,0,0,1,4.232,4.234h0a4.239,4.239,0,0,1-4.232,4.231h0A4.25,4.25,0,0,1,595,742.148Zm-16.921,0a4.234,4.234,0,0,1,4.23-4.234h0a4.224,4.224,0,0,1,4.231,4.234h0a4.236,4.236,0,0,1-4.231,4.231h0A4.246,4.246,0,0,1,578.076,742.148Zm-16.924,0a4.235,4.235,0,0,1,4.23-4.234h0a4.225,4.225,0,0,1,4.232,4.234h0a4.237,4.237,0,0,1-4.232,4.231h0A4.247,4.247,0,0,1,561.152,742.148Z"/><polygon class="cls-7" points="570.813 742.414 570.813 752.02 562.498 747.217 554.184 742.414 562.498 737.613 570.813 732.81 570.813 742.414"/><g class="cls-15"><path class="cls-16" d="M583.929,481.586a56.708,56.708,0,1,1,56.7-56.707A56.771,56.771,0,0,1,583.929,481.586Zm0-107.773a51.065,51.065,0,1,0,51.065,51.066A51.123,51.123,0,0,0,583.929,373.813Z"/></g><g class="cls-15"><path class="cls-16" d="M583.929,533.361A108.484,108.484,0,1,1,692.41,424.879,108.606,108.606,0,0,1,583.929,533.361Zm0-211.324A102.841,102.841,0,1,0,686.771,424.879,102.957,102.957,0,0,0,583.929,322.037Z"/></g><g class="cls-15"><path class="cls-16" d="M583.929,603.328c-98.4,0-178.451-80.052-178.451-178.449s80.053-178.45,178.451-178.45,178.45,80.053,178.45,178.45S682.325,603.328,583.929,603.328Zm0-351.258c-95.288,0-172.809,77.522-172.809,172.809s77.521,172.807,172.809,172.807,172.805-77.519,172.805-172.807S679.217,252.07,583.929,252.07Z"/></g><g id="_9J0QUu" data-name="9J0QUu"><path class="cls-17" d="M480.449,359.715a14.484,14.484,0,0,1,6.337-12.024,13.635,13.635,0,0,1,6.148-2.39,14.477,14.477,0,0,1,16.25,11.856,14.255,14.255,0,0,1-2.777,11.318c-1.1,1.486-2.107,3.029-3.16,4.544q-3.642,5.245-7.282,10.493c-.011.011-.017.027-.028.039a1.113,1.113,0,0,1-1.982,0q-1.683-2.412-3.356-4.827-2.325-3.356-4.653-6.708c-1.091-1.572-2.21-3.121-3.26-4.723a13.422,13.422,0,0,1-2.081-5.8C480.531,360.883,480.5,360.271,480.449,359.715Zm14.5-6.837a6.288,6.288,0,1,0,6.287,6.292A6.279,6.279,0,0,0,494.945,352.878Z"/></g><g id="_9J0QUu-2" data-name="9J0QUu"><path class="cls-17" d="M597.075,517.927a14.481,14.481,0,0,1,6.338-12.026,13.606,13.606,0,0,1,6.148-2.388,14.471,14.471,0,0,1,16.247,11.854,14.24,14.24,0,0,1-2.776,11.323c-1.1,1.482-2.108,3.025-3.158,4.54q-3.643,5.249-7.283,10.492c-.011.013-.015.027-.026.041a1.119,1.119,0,0,1-1.988,0q-1.683-2.408-3.354-4.829-2.33-3.346-4.65-6.7c-1.092-1.573-2.212-3.126-3.262-4.72a13.461,13.461,0,0,1-2.082-5.806C597.158,519.094,597.121,518.48,597.075,517.927Zm14.5-6.839a6.289,6.289,0,1,0,6.284,6.29A6.281,6.281,0,0,0,611.572,511.088Z"/></g><g id="_9J0QUu-3" data-name="9J0QUu"><path class="cls-17" d="M428.692,491.264a14.484,14.484,0,0,1,6.339-12.024,13.649,13.649,0,0,1,6.148-2.387,14.466,14.466,0,0,1,16.25,11.852,14.276,14.276,0,0,1-2.776,11.324c-1.1,1.483-2.108,3.024-3.16,4.538q-3.645,5.247-7.284,10.494a.266.266,0,0,1-.028.038,1.114,1.114,0,0,1-1.983,0q-1.68-2.413-3.354-4.825-2.326-3.356-4.654-6.708c-1.089-1.572-2.212-3.122-3.259-4.725a13.388,13.388,0,0,1-2.081-5.8C428.775,492.432,428.742,491.821,428.692,491.264Zm14.5-6.835a6.287,6.287,0,1,0,6.284,6.29A6.277,6.277,0,0,0,443.191,484.429Z"/></g><path class="cls-18" d="M639.6,424.386a55.672,55.672,0,1,1-55.919-55.407A55.673,55.673,0,0,1,639.6,424.386Z"/><path class="cls-19" d="M588.2,413.943c.215-7.8,1.548-15.356,5.785-22.053a45.573,45.573,0,0,1,5.8-6.99c1.6-1.656,3.627-.917,4.065,1.345a45.89,45.89,0,0,1,.551,11.7,70.59,70.59,0,0,1-4.078,21.363,43.683,43.683,0,0,1-1.656,4.077c-.664,1.373-.13,2.249.879,3.114a30.1,30.1,0,0,1,8.363,11.044c3.812,8.813,1.644,17.02-6.026,22.809-9.722,7.331-25.268,7.363-35,.051-7.617-5.71-9.813-13.774-6.174-22.542A31.72,31.72,0,0,1,568.97,426.6a2.353,2.353,0,0,0,.565-3.1,62.324,62.324,0,0,1-5.872-23,53.17,53.17,0,0,1,.556-13.779,2.442,2.442,0,0,1,4.37-1.575c5.23,4.783,8.148,10.845,9.778,17.618a56.638,56.638,0,0,1,1.4,14.827c-.062,2.428.769,3.224,3.218,3.12.831-.027,1.666-.019,2.488-.013,1.985.027,2.969-1.029,2.843-3.021-.038-.512-.089-1.019-.1-1.527C588.2,415.429,588.2,414.685,588.2,413.943Z"/><g id="_9J0QUu-4" data-name="9J0QUu"><path class="cls-17" d="M586.79,315.786a14.488,14.488,0,0,1,6.341-12.028,13.629,13.629,0,0,1,6.147-2.385,14.469,14.469,0,0,1,16.247,11.854,14.274,14.274,0,0,1-2.775,11.322c-1.1,1.481-2.108,3.025-3.158,4.541q-3.649,5.247-7.286,10.492c-.008.012-.017.026-.028.04a1.114,1.114,0,0,1-1.983,0q-1.677-2.411-3.354-4.829-2.328-3.346-4.653-6.706c-1.09-1.571-2.212-3.126-3.26-4.721a13.4,13.4,0,0,1-2.08-5.8C586.873,316.953,586.839,316.338,586.79,315.786Zm14.5-6.839a6.29,6.29,0,1,0,6.282,6.29A6.285,6.285,0,0,0,601.289,308.947Z"/></g><g id="_9J0QUu-5" data-name="9J0QUu"><path class="cls-17" d="M597.075,590.64a14.477,14.477,0,0,1,6.338-12.023,13.592,13.592,0,0,1,6.148-2.386,14.465,14.465,0,0,1,16.247,11.852,14.23,14.23,0,0,1-2.776,11.319c-1.1,1.484-2.108,3.03-3.158,4.542q-3.643,5.246-7.283,10.494c-.011.013-.015.025-.026.037a1.118,1.118,0,0,1-1.988,0q-1.683-2.414-3.354-4.828-2.33-3.351-4.65-6.706c-1.092-1.573-2.212-3.123-3.262-4.723a13.463,13.463,0,0,1-2.082-5.8C597.158,591.809,597.121,591.2,597.075,590.64Zm14.5-6.837a6.289,6.289,0,1,0,6.284,6.291A6.28,6.28,0,0,0,611.572,583.8Z"/></g><path class="cls-14" d="M790.969,489.808a4.226,4.226,0,0,1,4.232-4.231h0a4.228,4.228,0,0,1,4.229,4.231h0a4.236,4.236,0,0,1-4.229,4.233h0A4.234,4.234,0,0,1,790.969,489.808Zm-16.927,0a4.226,4.226,0,0,1,4.232-4.231h0a4.227,4.227,0,0,1,4.23,4.231h0a4.236,4.236,0,0,1-4.23,4.233h0A4.235,4.235,0,0,1,774.042,489.808Zm-16.921,0a4.224,4.224,0,0,1,4.23-4.231h0a4.235,4.235,0,0,1,4.231,4.231h0a4.244,4.244,0,0,1-4.231,4.233h0A4.233,4.233,0,0,1,757.121,489.808Z"/><path class="cls-14" d="M794.966,494.969a4.221,4.221,0,0,1-4.216-4.246h0A4.237,4.237,0,0,1,795,486.506h0a4.237,4.237,0,0,1,4.215,4.246h0a4.233,4.233,0,0,1-4.232,4.217h-.014Zm.075-16.925a4.216,4.216,0,0,1-4.219-4.244h0a4.226,4.226,0,0,1,4.243-4.217h0a4.236,4.236,0,0,1,4.219,4.246h0a4.227,4.227,0,0,1-4.227,4.215h-.016Zm.053-16.921a4.245,4.245,0,0,1-4.215-4.245h0a4.233,4.233,0,0,1,4.257-4.217h0a4.228,4.228,0,0,1,4.2,4.244h0a4.214,4.214,0,0,1-4.215,4.218h-.031Zm.072-16.927a4.226,4.226,0,0,1-4.219-4.243h0a4.241,4.241,0,0,1,4.246-4.218h0a4.224,4.224,0,0,1,4.215,4.245h0a4.22,4.22,0,0,1-4.23,4.216h-.012Zm.064-16.923a4.224,4.224,0,0,1-4.212-4.244h0a4.24,4.24,0,0,1,4.246-4.22h0a4.234,4.234,0,0,1,4.216,4.246h0a4.23,4.23,0,0,1-4.23,4.218h-.02Zm.077-16.923a4.215,4.215,0,0,1-4.217-4.247h0a4.233,4.233,0,0,1,4.246-4.214h0a4.232,4.232,0,0,1,4.215,4.242h0a4.231,4.231,0,0,1-4.23,4.219h-.014Zm.056-16.924a4.24,4.24,0,0,1-4.217-4.245h0a4.236,4.236,0,0,1,4.258-4.217h0a4.252,4.252,0,0,1,4.215,4.246h0a4.229,4.229,0,0,1-4.23,4.216h-.026Zm.068-16.926a4.225,4.225,0,0,1-4.217-4.246h0a4.25,4.25,0,0,1,4.261-4.215h0a4.226,4.226,0,0,1,4.2,4.245h0a4.22,4.22,0,0,1-4.227,4.216h-.018Zm.075-16.921a4.223,4.223,0,0,1-4.218-4.246h0a4.233,4.233,0,0,1,4.244-4.219h0a4.23,4.23,0,0,1,4.215,4.246h0a4.223,4.223,0,0,1-4.23,4.219h-.011Zm.065-16.927a4.218,4.218,0,0,1-4.216-4.243h0a4.236,4.236,0,0,1,4.245-4.218h0a4.246,4.246,0,0,1,4.22,4.244h0a4.232,4.232,0,0,1-4.235,4.217h-.014Zm.056-16.923a4.216,4.216,0,0,1-4.2-4.244h0a4.215,4.215,0,0,1,4.247-4.216h0a4.244,4.244,0,0,1,4.211,4.243h0a4.241,4.241,0,0,1-4.228,4.217h-.033ZM795.7,308.8a4.229,4.229,0,0,1-4.215-4.245h0a4.238,4.238,0,0,1,4.243-4.216h0a4.242,4.242,0,0,1,4.219,4.262h0a4.218,4.218,0,0,1-4.232,4.2H795.7Zm.068-16.925a4.228,4.228,0,0,1-4.215-4.242h0a4.242,4.242,0,0,1,4.246-4.22h0a4.239,4.239,0,0,1,4.216,4.244h0a4.23,4.23,0,0,1-4.232,4.218h-.015Zm.072-16.923a4.217,4.217,0,0,1-4.219-4.246h0a4.229,4.229,0,0,1,4.25-4.215h0a4.242,4.242,0,0,1,4.212,4.258h0a4.228,4.228,0,0,1-4.23,4.2h-.013Z"/><path class="cls-14" d="M875.412,565.713a4.226,4.226,0,0,1,4.232-4.23h0a4.232,4.232,0,0,1,4.229,4.23h0a4.243,4.243,0,0,1-4.229,4.23h0A4.236,4.236,0,0,1,875.412,565.713Zm0-16.924a4.226,4.226,0,0,1,4.232-4.231h0a4.233,4.233,0,0,1,4.229,4.231h0a4.242,4.242,0,0,1-4.229,4.23h0A4.236,4.236,0,0,1,875.412,548.789Zm0-16.926a4.228,4.228,0,0,1,4.232-4.229h0a4.234,4.234,0,0,1,4.229,4.229h0a4.241,4.241,0,0,1-4.229,4.231h0A4.235,4.235,0,0,1,875.412,531.863Zm0-16.924a4.227,4.227,0,0,1,4.232-4.23h0a4.233,4.233,0,0,1,4.229,4.23h0a4.243,4.243,0,0,1-4.229,4.232h0A4.236,4.236,0,0,1,875.412,514.939Zm0-16.921a4.226,4.226,0,0,1,4.232-4.23h0a4.233,4.233,0,0,1,4.229,4.23h0a4.244,4.244,0,0,1-4.229,4.23h0A4.238,4.238,0,0,1,875.412,498.018Zm0-16.926a4.226,4.226,0,0,1,4.232-4.23h0a4.233,4.233,0,0,1,4.229,4.23h0a4.233,4.233,0,0,1-4.229,4.231h0A4.226,4.226,0,0,1,875.412,481.092Zm0-16.925a4.229,4.229,0,0,1,4.232-4.232h0a4.235,4.235,0,0,1,4.229,4.232h0a4.24,4.24,0,0,1-4.229,4.23h0A4.234,4.234,0,0,1,875.412,464.167Zm0-16.923a4.226,4.226,0,0,1,4.232-4.23h0a4.232,4.232,0,0,1,4.229,4.23h0a4.242,4.242,0,0,1-4.229,4.231h0A4.236,4.236,0,0,1,875.412,447.244Zm0-16.923a4.227,4.227,0,0,1,4.232-4.231h0a4.233,4.233,0,0,1,4.229,4.231h0a4.244,4.244,0,0,1-4.229,4.231h0A4.237,4.237,0,0,1,875.412,430.321Zm0-16.927a4.227,4.227,0,0,1,4.232-4.229h0a4.233,4.233,0,0,1,4.229,4.229h0a4.232,4.232,0,0,1-4.229,4.231h0A4.226,4.226,0,0,1,875.412,413.394Zm0-16.923a4.229,4.229,0,0,1,4.232-4.231h0a4.235,4.235,0,0,1,4.229,4.231h0a4.238,4.238,0,0,1-4.229,4.228h0A4.231,4.231,0,0,1,875.412,396.471Zm-3.172-13.75a4.228,4.228,0,0,1,4.235-4.232h0a4.223,4.223,0,0,1,4.226,4.232h0a4.223,4.223,0,0,1-4.226,4.23h0A4.227,4.227,0,0,1,872.24,382.721Zm-16.927,0a4.228,4.228,0,0,1,4.235-4.232h0a4.234,4.234,0,0,1,4.23,4.232h0a4.233,4.233,0,0,1-4.23,4.23h0A4.227,4.227,0,0,1,855.313,382.721Zm-16.918,0a4.224,4.224,0,0,1,4.23-4.232h0a4.235,4.235,0,0,1,4.23,4.232h0a4.235,4.235,0,0,1-4.23,4.23h0A4.223,4.223,0,0,1,838.4,382.721Zm-16.927,0a4.224,4.224,0,0,1,4.23-4.232h0a4.227,4.227,0,0,1,4.232,4.232h0a4.227,4.227,0,0,1-4.232,4.23h0A4.223,4.223,0,0,1,821.468,382.721Zm-16.926,0a4.224,4.224,0,0,1,4.229-4.232h0A4.227,4.227,0,0,1,813,382.721h0a4.227,4.227,0,0,1-4.232,4.23h0A4.224,4.224,0,0,1,804.542,382.721Z"/><path class="cls-20" d="M696.052,269.726a30.19,30.19,0,1,1-29.959-30.414A30.192,30.192,0,0,1,696.052,269.726Z"/><g id="fGHtUO"><path class="cls-21" d="M682.574,285.413a61.371,61.371,0,0,0-.453-6.154c-.643-3.74-2.281-4.693-5.894-3.561a21.611,21.611,0,0,0-3.115,1.374,1.8,1.8,0,0,1-2.687-.751,17.48,17.48,0,0,1-1.389-3.1c-.62-2.107-.53-2.157,1.224-3.279a7.076,7.076,0,0,0,3.433-5.624c.027-.382.007-.765.053-1.141a3.929,3.929,0,0,0-1.869-4.321c-1.443-.944-2.361-2.662-3.343-3.827-2.044,2.059-4.2,4.305-6.457,6.452a11.761,11.761,0,0,1-2.895,2.023c-1.128.562-1.245,1.252-.886,2.33a7.2,7.2,0,0,0,3.613,4.374c.7.35,1,.791.762,1.476a32.859,32.859,0,0,1-1.651,4.468c-.691,1.388-1.4,1.441-2.828.847a33.7,33.7,0,0,0-4.7-1.752c-1.947-.5-3.1.1-3.748,2.045a26.6,26.6,0,0,0-.971,4.941,22.906,22.906,0,0,0-.041,2.978,3.334,3.334,0,0,1-2.474-1.886,7.53,7.53,0,0,1-.594-6.724,28.03,28.03,0,0,1,2.678-4.984c1.021-1.594,2.309-3.028,3.346-4.616a12.7,12.7,0,0,0,2.007-6.84c.185-7.386,5.507-11.709,11.854-12.128,7.029-.463,13.02,4.292,13.349,10.992a22.493,22.493,0,0,0,5.053,13.1,13.135,13.135,0,0,1,2.606,5.992C687.07,281.28,685.34,284.526,682.574,285.413Z"/><path class="cls-21" d="M676.686,284.589c-.851-1.147-1.569-2.133-2.317-3.138,3.143,1.574,5.641,6.178,5.055,9.482a8.6,8.6,0,0,1-1.144,2.5,1.2,1.2,0,0,1-.938.406q-11.429-.048-22.863-.184a1.64,1.64,0,0,1-1.157-.709,6.3,6.3,0,0,1-.586-5.6,11.251,11.251,0,0,1,5.1-6.19c-.809,1.026-1.606,2.028-2.4,3.027a8.523,8.523,0,0,1,6.568.128,7.3,7.3,0,0,1,3.926,5.119C667.812,284.281,670.777,282.916,676.686,284.589Z"/></g><path class="cls-6" d="M662.425,265.916c.616,1.77,1.916,2.847,3.418,2.781a3.521,3.521,0,0,0,3.193-2.823C666.882,263.57,664.692,263.732,662.425,265.916Zm3.371,1.143a1.314,1.314,0,0,1-1.153-.974,2.907,2.907,0,0,1,2.311.018S666.648,267.055,665.8,267.059Z"/><path class="cls-6" d="M750.888,488.083A30.193,30.193,0,1,1,720.7,457.9,30.192,30.192,0,0,1,750.888,488.083Z"/><g id="fGHtUO-2" data-name="fGHtUO"><path class="cls-18" d="M737.531,503.869c-.167-2.121-.156-4.169-.506-6.151-.672-3.734-2.324-4.676-5.923-3.513a20.708,20.708,0,0,0-3.1,1.4,1.8,1.8,0,0,1-2.7-.735,17.589,17.589,0,0,1-1.413-3.085c-.638-2.106-.539-2.157,1.2-3.294a7.044,7.044,0,0,0,3.387-5.644c.027-.38,0-.769.049-1.145a3.909,3.909,0,0,0-1.9-4.3c-1.45-.939-2.379-2.648-3.369-3.812-2.032,2.074-4.169,4.343-6.407,6.5a11.672,11.672,0,0,1-2.881,2.043c-1.125.571-1.231,1.265-.865,2.338a7.245,7.245,0,0,0,3.642,4.352c.7.341,1,.781.769,1.465a32.524,32.524,0,0,1-1.612,4.481c-.688,1.392-1.4,1.452-2.823.868a33.822,33.822,0,0,0-4.713-1.718c-1.945-.488-3.094.128-3.732,2.075a26.925,26.925,0,0,0-.933,4.947,23.042,23.042,0,0,0-.02,2.98,3.365,3.365,0,0,1-2.492-1.867,7.546,7.546,0,0,1-.638-6.723,27.592,27.592,0,0,1,2.643-5c1-1.6,2.282-3.045,3.31-4.64a12.7,12.7,0,0,0,1.957-6.855c.128-7.386,5.415-11.749,11.762-12.213,7.027-.517,13.051,4.193,13.428,10.894a22.5,22.5,0,0,0,5.156,13.06,13.162,13.162,0,0,1,2.648,5.971C741.985,499.7,740.28,502.963,737.531,503.869Z"/><path class="cls-18" d="M731.626,503.089c-.852-1.14-1.585-2.12-2.333-3.119,3.154,1.552,5.685,6.136,5.117,9.443a8.5,8.5,0,0,1-1.118,2.508,1.216,1.216,0,0,1-.936.416q-11.435.03-22.872-.015a1.619,1.619,0,0,1-1.151-.7,6.3,6.3,0,0,1-.633-5.588,11.284,11.284,0,0,1,5.051-6.231c-.8,1.033-1.594,2.042-2.371,3.048a8.522,8.522,0,0,1,6.568.077,7.273,7.273,0,0,1,3.955,5.09C722.75,502.847,725.708,501.463,731.626,503.089Z"/></g><path class="cls-20" d="M717.232,484.524c.634,1.761,1.941,2.833,3.433,2.751a3.514,3.514,0,0,0,3.176-2.843C721.677,482.146,719.486,482.319,717.232,484.524Zm3.372,1.113a1.319,1.319,0,0,1-1.16-.96,2.9,2.9,0,0,1,2.313,0S721.462,485.628,720.6,485.637Z"/><polygon class="cls-7" points="879.559 560.689 889.163 560.867 884.202 569.09 879.25 577.314 874.604 568.913 869.958 560.507 879.559 560.689"/><path class="cls-5" d="M822.363,595.054H930.944A17.352,17.352,0,0,1,948.3,612.406V870.428a17.348,17.348,0,0,1-17.348,17.348H822.366a17.352,17.352,0,0,1-17.352-17.352V612.4A17.348,17.348,0,0,1,822.363,595.054Z"/><path class="cls-4" d="M822.363,598.971H930.945a13.435,13.435,0,0,1,13.435,13.435V870.427a13.432,13.432,0,0,1-13.432,13.432H822.364a13.434,13.434,0,0,1-13.434-13.434V612.4A13.432,13.432,0,0,1,822.363,598.971Z"/><path class="cls-5" d="M942.7,612.406a11.764,11.764,0,0,0-11.751-11.754H822.363a11.761,11.761,0,0,0-11.752,11.754v.274H942.7Z"/><path class="cls-10" d="M810.611,612.68V870.425a11.764,11.764,0,0,0,11.752,11.753H930.948A11.767,11.767,0,0,0,942.7,870.425V612.68Z"/><path class="cls-4" d="M839.293,600.652h.513a1.865,1.865,0,0,1,1.868,1.865v4.851a5.315,5.315,0,0,0,5.318,5.312H907.3a5.313,5.313,0,0,0,5.319-5.312v-4.851a1.864,1.864,0,0,1,1.865-1.865h.51v-1.681h-75.7Z"/><path class="cls-5" d="M868.747,604.009H885.2a.482.482,0,0,1,.482.482v1.619a.485.485,0,0,1-.485.485H868.747a.484.484,0,0,1-.484-.484v-1.618A.484.484,0,0,1,868.747,604.009Z"/><path class="cls-2" d="M869.168,604.57h15.605a.35.35,0,0,1,.35.35v.764a.354.354,0,0,1-.354.354h-15.6a.351.351,0,0,1-.351-.351v-.767A.35.35,0,0,1,869.168,604.57Z"/><path class="cls-6" d="M946.7,742.317a33.395,33.395,0,1,1-33.391-33.4A33.393,33.393,0,0,1,946.7,742.317Z"/><g id="fGHtUO-3" data-name="fGHtUO"><path class="cls-18" d="M931.93,759.776c-.181-2.344-.17-4.61-.558-6.8-.742-4.136-2.572-5.177-6.551-3.892a23.541,23.541,0,0,0-3.432,1.544,1.992,1.992,0,0,1-2.977-.813,18.572,18.572,0,0,1-1.56-3.417c-.711-2.324-.607-2.38,1.323-3.637a7.81,7.81,0,0,0,3.746-6.249c.032-.417,0-.85.053-1.262a4.333,4.333,0,0,0-2.1-4.762c-1.6-1.032-2.635-2.928-3.729-4.21-2.247,2.3-4.613,4.8-7.087,7.194a13.248,13.248,0,0,1-3.19,2.262c-1.244.629-1.361,1.4-.954,2.583a8.01,8.01,0,0,0,4.026,4.813c.775.383,1.114.859.856,1.621a35.941,35.941,0,0,1-1.787,4.957c-.757,1.536-1.537,1.609-3.122.957a37.988,37.988,0,0,0-5.214-1.9c-2.147-.536-3.423.138-4.127,2.293a29.777,29.777,0,0,0-1.031,5.476,25.374,25.374,0,0,0-.022,3.294,3.706,3.706,0,0,1-2.755-2.066,8.334,8.334,0,0,1-.71-7.434,31.029,31.029,0,0,1,2.922-5.538c1.112-1.769,2.521-3.368,3.664-5.129a14.083,14.083,0,0,0,2.164-7.585c.146-8.169,5.992-13,13.011-13.513,7.771-.571,14.439,4.642,14.857,12.05a24.844,24.844,0,0,0,5.695,14.451,14.523,14.523,0,0,1,2.935,6.605C936.859,755.168,934.975,758.773,931.93,759.776Z"/><path class="cls-18" d="M925.4,758.911c-.95-1.259-1.751-2.343-2.587-3.448,3.489,1.716,6.293,6.785,5.666,10.447a9.443,9.443,0,0,1-1.237,2.777,1.349,1.349,0,0,1-1.033.459q-12.653.032-25.3-.019a1.81,1.81,0,0,1-1.281-.775,6.986,6.986,0,0,1-.7-6.185,12.481,12.481,0,0,1,5.59-6.89c-.888,1.145-1.759,2.256-2.629,3.374,2.521-.815,4.884-1.049,7.269.083a8.041,8.041,0,0,1,4.381,5.63C915.586,758.646,918.856,757.113,925.4,758.911Z"/></g><path class="cls-20" d="M909.477,738.379c.7,1.948,2.147,3.13,3.8,3.045a3.9,3.9,0,0,0,3.512-3.145C914.39,735.747,911.963,735.941,909.477,738.379Zm3.733,1.239a1.461,1.461,0,0,1-1.286-1.068,3.209,3.209,0,0,1,2.56,0S914.152,739.6,913.21,739.618Z"/><path class="cls-22" d="M824.939,638.851l.477-.769a.316.316,0,0,1,.449-.087,4.5,4.5,0,0,0,1.99.769,1.081,1.081,0,0,0,1.206-.956c0-.63-.572-1.066-1.677-1.485-1.244-.471-2.487-1.218-2.487-2.679,0-1.1.873-2.379,2.973-2.379a4.858,4.858,0,0,1,2.645.83.292.292,0,0,1,.078.409l-.5.707a.355.355,0,0,1-.46.148,4.535,4.535,0,0,0-1.84-.681c-.751,0-1.164.469-1.164.868,0,.583.491.98,1.56,1.387,1.285.483,2.766,1.2,2.766,2.8,0,1.28-1.179,2.456-3.041,2.456a4.423,4.423,0,0,1-2.908-.966C824.883,639.111,824.818,639.051,824.939,638.851Z"/><path class="cls-22" d="M832.642,631.623a.242.242,0,0,1,.25-.236h5.378a.248.248,0,0,1,.253.236v1.017a.247.247,0,0,1-.253.236h-3.914v2.031h3.264a.256.256,0,0,1,.253.238v1.03a.244.244,0,0,1-.253.233h-3.264v2.17h3.914a.246.246,0,0,1,.253.234v1.017a.247.247,0,0,1-.253.237h-5.378a.241.241,0,0,1-.25-.237Z"/><path class="cls-22" d="M840.411,631.623a.243.243,0,0,1,.249-.236h1.217a.256.256,0,0,1,.253.236v6.955H845.5a.244.244,0,0,1,.251.234v1.017a.245.245,0,0,1-.251.237H840.66a.242.242,0,0,1-.249-.237Z"/><path class="cls-22" d="M847.082,631.623a.247.247,0,0,1,.249-.236h5.379a.246.246,0,0,1,.25.236v1.017a.244.244,0,0,1-.25.236H848.8v2.031h3.267a.254.254,0,0,1,.249.238v1.03a.243.243,0,0,1-.249.233H848.8v2.17h3.912a.243.243,0,0,1,.25.234v1.017a.244.244,0,0,1-.25.237h-5.379a.246.246,0,0,1-.249-.237Z"/><path class="cls-22" d="M858.905,631.265a4.631,4.631,0,0,1,3.2,1.153.226.226,0,0,1,.011.346l-.809.782a.215.215,0,0,1-.324,0,3.257,3.257,0,0,0-2.036-.733,2.878,2.878,0,1,0,.011,5.753,3.31,3.31,0,0,0,2.025-.708.247.247,0,0,1,.324,0l.825.794a.225.225,0,0,1-.016.335,4.712,4.712,0,0,1-3.211,1.2,4.472,4.472,0,1,1,0-8.925Z"/><path class="cls-22" d="M865.088,632.876h-2.023a.245.245,0,0,1-.249-.236v-1.017a.246.246,0,0,1,.249-.236h5.778a.248.248,0,0,1,.25.236v1.017a.246.246,0,0,1-.25.236h-2.025v6.953a.251.251,0,0,1-.249.237h-1.231a.254.254,0,0,1-.25-.237Z"/><path class="cls-22" d="M872.179,639.742l4.115-8.341a.229.229,0,0,1,.225-.136h.132a.239.239,0,0,1,.227.136l4.069,8.341a.224.224,0,0,1-.227.324h-1.151a.382.382,0,0,1-.383-.25l-.649-1.338h-3.948l-.645,1.338a.4.4,0,0,1-.387.25H872.41A.225.225,0,0,1,872.179,639.742Zm5.711-2.639-1.322-2.725h-.038l-1.3,2.725Z"/><path class="cls-22" d="M889.152,631.265a5.2,5.2,0,0,1,3.222,1.153.235.235,0,0,1,.014.346l-.819.807a.244.244,0,0,1-.348,0,3.1,3.1,0,0,0-1.994-.721,2.86,2.86,0,1,0,.015,5.716,4.4,4.4,0,0,0,1.57-.308V637.2h-1.057a.233.233,0,0,1-.25-.222V636a.237.237,0,0,1,.25-.238h2.534a.236.236,0,0,1,.238.238v3.17a.248.248,0,0,1-.1.2,7.009,7.009,0,0,1-3.275.8,4.464,4.464,0,1,1,0-8.91Z"/><path class="cls-22" d="M894.474,631.623a.252.252,0,0,1,.249-.236h1.232a.255.255,0,0,1,.249.236v8.206a.254.254,0,0,1-.249.237h-1.232a.251.251,0,0,1-.249-.237Z"/><path class="cls-22" d="M898.605,631.487a.244.244,0,0,1,.251-.222h.332l5.5,5.477h.011v-5.119a.246.246,0,0,1,.25-.236h1.22a.254.254,0,0,1,.249.236v8.342a.244.244,0,0,1-.249.225h-.32l-5.524-5.69h-.011v5.329a.245.245,0,0,1-.253.237h-1.2a.254.254,0,0,1-.251-.237Z"/><path class="cls-22" d="M912.9,631.265a5.189,5.189,0,0,1,3.226,1.153.23.23,0,0,1,.011.346l-.819.807a.241.241,0,0,1-.345,0,3.1,3.1,0,0,0-1.99-.721,2.86,2.86,0,1,0,.011,5.716,4.364,4.364,0,0,0,1.569-.308V637.2h-1.054a.231.231,0,0,1-.249-.222V636a.235.235,0,0,1,.249-.238h2.538a.239.239,0,0,1,.237.238v3.17a.243.243,0,0,1-.105.2,7.016,7.016,0,0,1-3.279.8,4.464,4.464,0,1,1,0-8.91Z"/><path class="cls-22" d="M918.229,631.623a.242.242,0,0,1,.25-.236h3.78a2.636,2.636,0,0,1,.922,5.171l1.813,3.147a.237.237,0,0,1-.222.361h-1.391a.228.228,0,0,1-.211-.112l-1.757-3.285h-1.468v3.16a.252.252,0,0,1-.25.237h-1.216a.241.241,0,0,1-.25-.237Zm3.884,3.721a1.306,1.306,0,0,0,1.306-1.268,1.277,1.277,0,0,0-1.306-1.2h-2.154v2.468Z"/><rect class="cls-22" x="829.774" y="841.599" width="95.817" height="21.907"/><path class="cls-5" d="M852.511,849.292a.214.214,0,0,1,.227-.211h2.787a2.486,2.486,0,1,1,.015,4.961h-1.488v2.614a.223.223,0,0,1-.224.21h-1.09a.213.213,0,0,1-.227-.21Zm2.919,3.4a1.188,1.188,0,0,0,1.224-1.162,1.152,1.152,0,0,0-1.224-1.076h-1.378v2.238Z"/><path class="cls-5" d="M858,856.58l3.693-7.488a.207.207,0,0,1,.2-.119h.125a.206.206,0,0,1,.2.119l3.656,7.488a.2.2,0,0,1-.2.286h-1.035a.351.351,0,0,1-.349-.218l-.573-1.2H860.16l-.586,1.2a.356.356,0,0,1-.343.218H858.2C858.021,856.866,857.923,856.725,858,856.58Zm5.13-2.371-1.191-2.445h-.033l-1.164,2.445Z"/><path class="cls-5" d="M867.925,853.122l-2.7-3.718a.206.206,0,0,1,.189-.323h1.208a.229.229,0,0,1,.188.1l1.9,2.559,1.9-2.559a.259.259,0,0,1,.193-.1h1.22a.208.208,0,0,1,.193.323l-2.744,3.707v3.545a.229.229,0,0,1-.226.21h-1.1a.218.218,0,0,1-.224-.21Z"/><path class="cls-5" d="M875.888,849.169a.213.213,0,0,1,.224-.2h.293l4.945,4.913h.013v-4.594a.216.216,0,0,1,.225-.211h1.092a.226.226,0,0,1,.228.211v7.488a.217.217,0,0,1-.228.2H882.4l-4.97-5.108h-.007v4.784a.217.217,0,0,1-.227.21h-1.08a.221.221,0,0,1-.224-.21Z"/><path class="cls-5" d="M888.739,848.973a4.011,4.011,0,1,1-4.264,4.015A4.138,4.138,0,0,1,888.739,848.973Zm0,6.565a2.564,2.564,0,1,0-2.719-2.55A2.658,2.658,0,0,0,888.739,855.538Z"/><path class="cls-5" d="M893.774,849.345c-.048-.154.049-.264.212-.264h1.094a.249.249,0,0,1,.217.152l1.231,4.443h.053l1.884-4.584a.2.2,0,0,1,.2-.119h.212a.187.187,0,0,1,.2.119l1.9,4.584h.05l1.208-4.443a.245.245,0,0,1,.216-.152h1.09c.167,0,.266.11.213.264l-2.24,7.481a.241.241,0,0,1-.216.154h-.192a.2.2,0,0,1-.2-.125l-2.128-5.036h-.057l-2.1,5.036a.2.2,0,0,1-.2.125h-.189a.235.235,0,0,1-.214-.154Z"/><path class="cls-14" d="M461.85,1117.156a4.235,4.235,0,0,1,4.231-4.233h0a4.236,4.236,0,0,1,4.232,4.233h0a4.226,4.226,0,0,1-4.232,4.229h0A4.225,4.225,0,0,1,461.85,1117.156Zm0-16.928a4.228,4.228,0,0,1,4.231-4.232h0a4.229,4.229,0,0,1,4.232,4.232h0a4.229,4.229,0,0,1-4.232,4.233h0A4.228,4.228,0,0,1,461.85,1100.228Zm0-16.923a4.228,4.228,0,0,1,4.231-4.232h0a4.229,4.229,0,0,1,4.232,4.232h0a4.225,4.225,0,0,1-4.232,4.23h0A4.224,4.224,0,0,1,461.85,1083.305Zm0-16.922a4.223,4.223,0,0,1,4.231-4.229h0a4.224,4.224,0,0,1,4.232,4.229h0a4.226,4.226,0,0,1-4.232,4.232h0A4.225,4.225,0,0,1,461.85,1066.383Zm0-16.926a4.225,4.225,0,0,1,4.231-4.23h0a4.226,4.226,0,0,1,4.232,4.23h0a4.228,4.228,0,0,1-4.232,4.231h0A4.227,4.227,0,0,1,461.85,1049.457Zm0-16.922a4.223,4.223,0,0,1,4.231-4.231h0a4.224,4.224,0,0,1,4.232,4.231h0a4.222,4.222,0,0,1-4.232,4.227h0A4.221,4.221,0,0,1,461.85,1032.535Zm0-16.924a4.233,4.233,0,0,1,4.231-4.23h0a4.234,4.234,0,0,1,4.232,4.23h0a4.227,4.227,0,0,1-4.232,4.229h0A4.226,4.226,0,0,1,461.85,1015.611Zm0-16.927a4.234,4.234,0,0,1,4.231-4.23h0a4.235,4.235,0,0,1,4.232,4.23h0a4.229,4.229,0,0,1-4.232,4.235h0A4.228,4.228,0,0,1,461.85,998.684Zm0-16.923a4.234,4.234,0,0,1,4.231-4.23h0a4.235,4.235,0,0,1,4.232,4.23h0a4.228,4.228,0,0,1-4.232,4.231h0A4.227,4.227,0,0,1,461.85,981.761Zm0-16.924a4.234,4.234,0,0,1,4.231-4.231h0a4.235,4.235,0,0,1,4.232,4.231h0a4.228,4.228,0,0,1-4.232,4.234h0A4.227,4.227,0,0,1,461.85,964.837Zm0-16.926a4.226,4.226,0,0,1,4.231-4.23h0a4.227,4.227,0,0,1,4.232,4.23h0a4.227,4.227,0,0,1-4.232,4.233h0A4.227,4.227,0,0,1,461.85,947.911Zm0-16.923a4.223,4.223,0,0,1,4.231-4.23h0a4.224,4.224,0,0,1,4.232,4.23h0a4.226,4.226,0,0,1-4.232,4.231h0A4.225,4.225,0,0,1,461.85,930.988Zm0-16.924a4.232,4.232,0,0,1,4.231-4.228h0a4.233,4.233,0,0,1,4.232,4.228h0a4.229,4.229,0,0,1-4.232,4.234h0A4.228,4.228,0,0,1,461.85,914.064Zm0-16.923a4.235,4.235,0,0,1,4.231-4.232h0a4.236,4.236,0,0,1,4.232,4.232h0a4.224,4.224,0,0,1-4.232,4.23h0A4.223,4.223,0,0,1,461.85,897.141Zm0-16.927a4.233,4.233,0,0,1,4.231-4.229h0a4.234,4.234,0,0,1,4.232,4.229h0a4.227,4.227,0,0,1-4.232,4.236h0A4.227,4.227,0,0,1,461.85,880.214Z"/><polygon class="cls-7" points="513.05 1134.441 513.05 1124.844 521.364 1129.641 529.678 1134.441 521.364 1139.247 513.05 1144.05 513.05 1134.441"/><path class="cls-14" d="M495.7,1135.018a4.233,4.233,0,0,1,4.229-4.233h0a4.245,4.245,0,0,1,4.233,4.233h0a4.235,4.235,0,0,1-4.233,4.229h0A4.223,4.223,0,0,1,495.7,1135.018Zm-16.926,0a4.235,4.235,0,0,1,4.231-4.233h0a4.234,4.234,0,0,1,4.232,4.233h0a4.225,4.225,0,0,1-4.232,4.229h0A4.225,4.225,0,0,1,478.773,1135.018Zm-16.923,0a4.235,4.235,0,0,1,4.231-4.233h0a4.236,4.236,0,0,1,4.232,4.233h0a4.226,4.226,0,0,1-4.232,4.229h0A4.225,4.225,0,0,1,461.85,1135.018Z"/><path class="cls-14" d="M622.277,1051.783a4.235,4.235,0,0,1,4.229-4.23h0a4.224,4.224,0,0,1,4.232,4.23h0a4.222,4.222,0,0,1-4.232,4.22h0A4.233,4.233,0,0,1,622.277,1051.783Zm0-16.925a4.238,4.238,0,0,1,4.229-4.232h0a4.227,4.227,0,0,1,4.232,4.232h0a4.237,4.237,0,0,1-4.232,4.233h0A4.248,4.248,0,0,1,622.277,1034.858Zm0-16.922a4.234,4.234,0,0,1,4.229-4.231h0a4.223,4.223,0,0,1,4.232,4.231h0a4.232,4.232,0,0,1-4.232,4.229h0A4.243,4.243,0,0,1,622.277,1017.936Zm0-16.926a4.236,4.236,0,0,1,4.229-4.23h0a4.226,4.226,0,0,1,4.232,4.23h0a4.235,4.235,0,0,1-4.232,4.235h0A4.246,4.246,0,0,1,622.277,1001.01Zm0-16.924a4.238,4.238,0,0,1,4.229-4.233h0a4.227,4.227,0,0,1,4.232,4.233h0a4.234,4.234,0,0,1-4.232,4.232h0A4.245,4.245,0,0,1,622.277,984.086ZM790.4,982.978a4.241,4.241,0,0,1,4.234-4.236h0a4.229,4.229,0,0,1,4.231,4.236h0a4.236,4.236,0,0,1-4.231,4.23h0A4.249,4.249,0,0,1,790.4,982.978Zm-16.923,0a4.231,4.231,0,0,1,4.232-4.236h0a4.23,4.23,0,0,1,4.233,4.236h0a4.238,4.238,0,0,1-4.233,4.23h0A4.239,4.239,0,0,1,773.476,982.978Zm-16.922,0a4.237,4.237,0,0,1,4.23-4.236h0a4.227,4.227,0,0,1,4.23,4.236h0a4.235,4.235,0,0,1-4.23,4.23h0A4.245,4.245,0,0,1,756.554,982.978Zm-16.922,0a4.241,4.241,0,0,1,4.244-4.236h0a4.226,4.226,0,0,1,4.217,4.236h0a4.234,4.234,0,0,1-4.217,4.23h0A4.249,4.249,0,0,1,739.632,982.978Zm-16.924,0a4.236,4.236,0,0,1,4.232-4.236h0a4.226,4.226,0,0,1,4.226,4.236h0a4.233,4.233,0,0,1-4.226,4.23h0A4.244,4.244,0,0,1,722.708,982.978Zm-16.927,0a4.239,4.239,0,0,1,4.232-4.236h0a4.24,4.24,0,0,1,4.245,4.236h0a4.248,4.248,0,0,1-4.245,4.23h0A4.247,4.247,0,0,1,705.781,982.978Zm-16.924,0a4.229,4.229,0,0,1,4.229-4.236h0a4.232,4.232,0,0,1,4.236,4.236h0a4.24,4.24,0,0,1-4.236,4.23h0A4.237,4.237,0,0,1,688.857,982.978Zm-16.927,0a4.241,4.241,0,0,1,4.233-4.236h0a4.229,4.229,0,0,1,4.232,4.236h0a4.236,4.236,0,0,1-4.232,4.23h0A4.249,4.249,0,0,1,671.93,982.978Zm-16.923,0a4.239,4.239,0,0,1,4.235-4.236h0a4.231,4.231,0,0,1,4.23,4.236h0a4.239,4.239,0,0,1-4.23,4.23h0A4.247,4.247,0,0,1,655.007,982.978Zm-16.92,0a4.236,4.236,0,0,1,4.228-4.236h0a4.229,4.229,0,0,1,4.234,4.236h0a4.236,4.236,0,0,1-4.234,4.23h0A4.243,4.243,0,0,1,638.087,982.978Z"/><rect class="cls-20" x="678.235" y="963.359" width="65.812" height="58.047"/><g id="I9kn1Z"><path class="cls-18" d="M737.613,958.534c.794.127,1.477.176,2.134.326a9.231,9.231,0,0,1,7.188,8.965q.054,23.4,0,46.809a9.2,9.2,0,0,1-8.725,9.288c-.633.057-1.28.052-1.923.052H682.594c-6.469,0-10.312-3.8-10.312-10.227q-.008-22.575.006-45.151c0-5.578,2.932-9.025,8.468-9.881.975-.153.869-.734.869-1.373,0-4.264-.106-8.536.02-12.8.331-11.6,5.651-20.226,16.092-25.243a27.827,27.827,0,0,1,39.289,19.841,43.055,43.055,0,0,1,.566,7.256C737.678,950.412,737.613,954.446,737.613,958.534Zm-55.9,55.962H737.5V968.037H681.71Zm9.322-56h37.244c0-4.753.021-9.387-.01-14.018a18.652,18.652,0,0,0-36.561-5.109,13.736,13.736,0,0,0-.642,3.5C691,948.046,691.032,953.225,691.032,958.5Z"/></g><path class="cls-23" d="M681.278,986.655a.279.279,0,0,1,.272-.272h5.789a.276.276,0,0,1,.272.272v1.166a.276.276,0,0,1-.272.272h-4.2v2.327h3.506a.278.278,0,0,1,.272.271v1.18a.276.276,0,0,1-.272.271h-3.506v2.485h4.2a.271.271,0,0,1,.272.269v1.169a.277.277,0,0,1-.272.271H681.55a.28.28,0,0,1-.272-.271Z"/><path class="cls-23" d="M689.049,994.937l.517-.879a.324.324,0,0,1,.481-.1,4.712,4.712,0,0,0,2.146.879,1.184,1.184,0,0,0,1.29-1.091c0-.727-.607-1.228-1.807-1.7-1.332-.543-2.669-1.394-2.669-3.072,0-1.27.939-2.731,3.2-2.731a4.992,4.992,0,0,1,2.834.952.349.349,0,0,1,.086.47l-.533.81a.382.382,0,0,1-.5.171,4.629,4.629,0,0,0-1.975-.779,1.133,1.133,0,0,0-1.254.993c0,.667.527,1.122,1.678,1.59,1.381.559,2.976,1.379,2.976,3.207a3.006,3.006,0,0,1-3.274,2.816,4.545,4.545,0,0,1-3.123-1.107C688.992,995.24,688.922,995.167,689.049,994.937Z"/><path class="cls-23" d="M701.735,986.241a4.8,4.8,0,0,1,3.431,1.319.261.261,0,0,1,.016.4l-.864.895a.229.229,0,0,1-.357,0,3.355,3.355,0,0,0-2.19-.84,3.3,3.3,0,0,0,.016,6.6,3.447,3.447,0,0,0,2.174-.807.258.258,0,0,1,.357,0l.879.9a.26.26,0,0,1-.015.383,4.871,4.871,0,0,1-3.447,1.376,5.115,5.115,0,1,1,0-10.23Z"/><path class="cls-23" d="M707.038,986.655a.273.273,0,0,1,.267-.272h4.065a3.076,3.076,0,0,1,3.1,3.057,3.128,3.128,0,0,1-2.1,2.87l1.944,3.607a.273.273,0,0,1-.24.419H712.58a.254.254,0,0,1-.23-.132l-1.885-3.77h-1.578v3.631a.287.287,0,0,1-.271.271h-1.311a.274.274,0,0,1-.267-.271Zm4.176,4.267a1.453,1.453,0,0,0,1.41-1.456,1.411,1.411,0,0,0-1.41-1.373H708.9v2.829Z"/><path class="cls-23" d="M720.883,986.241a5.115,5.115,0,1,1-5.094,5.13A5.106,5.106,0,0,1,720.883,986.241Zm0,8.386a3.267,3.267,0,1,0-3.25-3.256A3.273,3.273,0,0,0,720.883,994.627Z"/><path class="cls-23" d="M726.9,986.727a.248.248,0,0,1,.256-.344h1.3a.288.288,0,0,1,.261.2l1.477,5.666h.059l2.26-5.852a.226.226,0,0,1,.233-.158h.261a.224.224,0,0,1,.24.158l2.276,5.852h.059l1.448-5.666a.288.288,0,0,1,.256-.2h1.306a.247.247,0,0,1,.256.344l-2.686,9.542a.274.274,0,0,1-.254.2h-.23a.263.263,0,0,1-.246-.15L732.9,989.88h-.075l-2.511,6.441a.248.248,0,0,1-.238.15h-.23a.27.27,0,0,1-.256-.2Z"/><path class="cls-20" d="M393.389,267.258a41.909,41.909,0,1,1-41.59-42.219A41.905,41.905,0,0,1,393.389,267.258Z"/><g id="fGHtUO-4" data-name="fGHtUO"><path class="cls-21" d="M374.685,289.034c-.2-2.949-.167-5.789-.63-8.542-.895-5.191-3.176-6.515-8.188-4.943a30.269,30.269,0,0,0-4.319,1.908c-1.579.767-2.889.523-3.728-1.044a23.9,23.9,0,0,1-1.933-4.306c-.859-2.923-.731-2.994,1.7-4.552a9.826,9.826,0,0,0,4.762-7.806c.036-.53.007-1.063.071-1.585.34-2.528-.166-4.392-2.594-6-2-1.31-3.274-3.695-4.638-5.313-2.842,2.857-5.831,5.975-8.959,8.956a16.44,16.44,0,0,1-4.026,2.809c-1.565.779-1.723,1.737-1.225,3.234a10.015,10.015,0,0,0,5.011,6.072c.97.486,1.389,1.1,1.058,2.049a45.1,45.1,0,0,1-2.287,6.2c-.966,1.925-1.95,2-3.923,1.174a46.96,46.96,0,0,0-6.53-2.432c-2.7-.7-4.3.144-5.2,2.84a37.728,37.728,0,0,0-1.347,6.858,31.222,31.222,0,0,0-.056,4.134,4.642,4.642,0,0,1-3.436-2.618,10.462,10.462,0,0,1-.818-9.335,38.492,38.492,0,0,1,3.715-6.918c1.412-2.214,3.2-4.206,4.646-6.407a17.656,17.656,0,0,0,2.781-9.5c.261-10.251,7.646-16.254,16.457-16.837,9.759-.642,18.073,5.958,18.534,15.261A31.149,31.149,0,0,0,376.6,270.59a18.26,18.26,0,0,1,3.617,8.318C380.917,283.3,378.516,287.8,374.685,289.034Z"/><path class="cls-21" d="M366.5,287.891c-1.177-1.592-2.175-2.959-3.215-4.356,4.366,2.184,7.831,8.576,7.014,13.162a11.782,11.782,0,0,1-1.582,3.471,1.665,1.665,0,0,1-1.3.563q-15.872-.065-31.744-.255a2.268,2.268,0,0,1-1.6-.984,8.74,8.74,0,0,1-.814-7.769,15.624,15.624,0,0,1,7.074-8.592c-1.121,1.424-2.23,2.816-3.327,4.2,3.169-.991,6.134-1.263,9.119.178a10.131,10.131,0,0,1,5.446,7.107C354.186,287.462,358.3,285.568,366.5,287.891Z"/></g><path class="cls-6" d="M346.713,261.969c.857,2.458,2.661,3.955,4.739,3.861a4.892,4.892,0,0,0,4.435-3.918C352.905,258.715,349.859,258.937,346.713,261.969Zm4.675,1.587a1.833,1.833,0,0,1-1.6-1.352,4.055,4.055,0,0,1,3.212.024S352.572,263.551,351.388,263.556Z"/><text class="cls-8" transform="translate(279.352 189.52)">1</text><text class="cls-8" transform="translate(820.052 305.947)">2</text><text class="cls-24" transform="translate(309.573 172.247)"><tspan class="cls-25">G</tspan><tspan x="9.968" y="0">ingrs </tspan><tspan class="cls-26" x="39.465" y="0">(</tspan><tspan x="44.155" y="0">sexwor</tspan><tspan class="cls-27" x="81.422" y="0">k</tspan><tspan x="87.863" y="0">er</tspan><tspan class="cls-28" x="98.88" y="0">s</tspan><tspan class="cls-29" x="103.766" y="0">) activate</tspan><tspan x="0" y="20.412">their </tspan><tspan class="cls-30" x="29.203" y="20.412">I</tspan><tspan class="cls-31" x="33.179" y="20.412">nstafuck status.</tspan></text><text class="cls-24" transform="translate(858.021 288.879)"><tspan class="cls-32">A</tspan><tspan x="9.212" y="0">llavailable gingrs </tspan><tspan x="0" y="20.411">will be displayed.</tspan></text><path class="cls-14" d="M616.9,264.213a4.234,4.234,0,0,1,4.23-4.234h0a4.223,4.223,0,0,1,4.232,4.234h0a4.235,4.235,0,0,1-4.232,4.231h0A4.247,4.247,0,0,1,616.9,264.213Zm-16.923,0a4.234,4.234,0,0,1,4.232-4.234h0a4.225,4.225,0,0,1,4.23,4.234h0a4.237,4.237,0,0,1-4.23,4.231h0A4.246,4.246,0,0,1,599.974,264.213Zm-16.927,0a4.235,4.235,0,0,1,4.232-4.234h0a4.227,4.227,0,0,1,4.234,4.234h0a4.239,4.239,0,0,1-4.234,4.231h0A4.247,4.247,0,0,1,583.047,264.213Zm-16.924,0a4.236,4.236,0,0,1,4.233-4.234h0a4.227,4.227,0,0,1,4.232,4.234h0a4.239,4.239,0,0,1-4.232,4.231h0A4.248,4.248,0,0,1,566.123,264.213Zm-16.924,0a4.234,4.234,0,0,1,4.23-4.234h0a4.225,4.225,0,0,1,4.232,4.234h0a4.237,4.237,0,0,1-4.232,4.231h0A4.247,4.247,0,0,1,549.2,264.213Zm-16.923,0a4.226,4.226,0,0,1,4.236-4.234h0a4.223,4.223,0,0,1,4.226,4.234h0a4.235,4.235,0,0,1-4.226,4.231h0A4.238,4.238,0,0,1,532.276,264.213Zm-16.923,0a4.225,4.225,0,0,1,4.232-4.234h0a4.223,4.223,0,0,1,4.23,4.234h0a4.236,4.236,0,0,1-4.23,4.231h0A4.237,4.237,0,0,1,515.353,264.213Zm-16.921,0a4.223,4.223,0,0,1,4.226-4.234h0a4.223,4.223,0,0,1,4.232,4.234h0a4.235,4.235,0,0,1-4.232,4.231h0A4.235,4.235,0,0,1,498.432,264.213Zm-16.927,0a4.224,4.224,0,0,1,4.226-4.234h0a4.226,4.226,0,0,1,4.236,4.234h0a4.238,4.238,0,0,1-4.236,4.231h0A4.236,4.236,0,0,1,481.505,264.213Zm-16.927,0a4.229,4.229,0,0,1,4.236-4.234h0a4.223,4.223,0,0,1,4.23,4.234h0a4.236,4.236,0,0,1-4.23,4.231h0A4.241,4.241,0,0,1,464.578,264.213Zm-16.925,0a4.237,4.237,0,0,1,4.236-4.234h0a4.227,4.227,0,0,1,4.231,4.234h0a4.239,4.239,0,0,1-4.231,4.231h0A4.25,4.25,0,0,1,447.653,264.213Zm-16.92,0a4.233,4.233,0,0,1,4.23-4.234h0a4.224,4.224,0,0,1,4.231,4.234h0a4.236,4.236,0,0,1-4.231,4.231h0A4.245,4.245,0,0,1,430.733,264.213Zm-16.924,0a4.234,4.234,0,0,1,4.23-4.234h0a4.224,4.224,0,0,1,4.231,4.234h0a4.236,4.236,0,0,1-4.231,4.231h0A4.247,4.247,0,0,1,413.809,264.213Z"/><text class="cls-8" transform="translate(961.968 772.369)">3</text><text class="cls-33" transform="translate(825.833 911.55)">CLIENT PHONE</text><path class="cls-14" d="M461.85,1134.639a4.223,4.223,0,0,1,4.231-4.229h0a4.224,4.224,0,0,1,4.232,4.229h0a4.226,4.226,0,0,1-4.232,4.232h0A4.225,4.225,0,0,1,461.85,1134.639Zm0-16.923a4.232,4.232,0,0,1,4.231-4.228h0a4.233,4.233,0,0,1,4.232,4.228h0a4.229,4.229,0,0,1-4.232,4.234h0A4.228,4.228,0,0,1,461.85,1117.716Zm0-16.923a4.235,4.235,0,0,1,4.231-4.232h0a4.236,4.236,0,0,1,4.232,4.232h0a4.225,4.225,0,0,1-4.232,4.23h0A4.224,4.224,0,0,1,461.85,1100.793Zm0-16.927a4.233,4.233,0,0,1,4.231-4.229h0a4.234,4.234,0,0,1,4.232,4.229h0a4.227,4.227,0,0,1-4.232,4.236h0A4.227,4.227,0,0,1,461.85,1083.866Z"/><path class="cls-14" d="M790.4,1016.82a4.237,4.237,0,0,1,4.23-4.23h0a4.225,4.225,0,0,1,4.231,4.23h0a4.222,4.222,0,0,1-4.231,4.221h0A4.234,4.234,0,0,1,790.4,1016.82Zm0-16.925a4.239,4.239,0,0,1,4.23-4.231h0a4.227,4.227,0,0,1,4.231,4.231h0a4.237,4.237,0,0,1-4.231,4.234h0A4.249,4.249,0,0,1,790.4,999.9Zm0-16.921a4.236,4.236,0,0,1,4.23-4.232h0a4.224,4.224,0,0,1,4.231,4.232h0a4.231,4.231,0,0,1-4.231,4.228h0A4.243,4.243,0,0,1,790.4,982.974Z"/><text class="cls-24" transform="translate(993.699 756.055)"><tspan class="cls-28">C</tspan><tspan x="9.618" y="0">lie</tspan><tspan class="cls-34" x="22.232" y="0">n</tspan><tspan x="29.302" y="0">t selects </tspan><tspan x="0" y="20.411">favourite ging</tspan><tspan class="cls-35" x="75.192" y="20.411">r</tspan><tspan x="79.533" y="20.411">.</tspan></text><text class="cls-33" transform="translate(568.302 1384.495)">CLIENT PHONE</text><text class="cls-33" transform="translate(761.701 1320.482)">GINGR PHONE</text><text class="cls-24" transform="translate(556.493 820.008)">GG <tspan class="cls-36" x="23.295" y="0">C</tspan><tspan x="32.843" y="0">oin se</tspan><tspan class="cls-37" x="64.146" y="0">n</tspan><tspan x="71.217" y="0">t to </tspan><tspan x="0" y="20.411">esc</tspan><tspan class="cls-34" x="17.401" y="20.411">r</tspan><tspan class="cls-31" x="22.063" y="20.411">ow to </tspan><tspan class="cls-38" x="54.921" y="20.411">P</tspan><tspan class="cls-39" x="62.761" y="20.411">A</tspan><tspan x="71.329" y="20.411">Y N</tspan><tspan class="cls-40" x="93.294" y="20.411">O</tspan><tspan x="104.592" y="20.411">W!</tspan></text><text class="cls-8" transform="translate(520.327 837.342)">4</text><text class="cls-24" transform="translate(929.591 1131.997)"><tspan class="cls-25">T</tspan><tspan class="cls-31" x="6.72" y="0">h</tspan><tspan class="cls-34" x="13.832" y="0">r</tspan><tspan x="18.494" y="0">ough our scanning </tspan><tspan x="0" y="20.411">p</tspan><tspan class="cls-34" x="6.86" y="20.411">r</tspan><tspan x="11.522" y="20.411">ocess funds will be </tspan><tspan class="cls-34" x="0" y="40.823">r</tspan><tspan x="4.662" y="40.823">eleased f</tspan><tspan class="cls-34" x="52.317" y="40.823">r</tspan><tspan class="cls-41" x="56.979" y="40.823">om esc</tspan><tspan class="cls-34" x="94.89" y="40.823">r</tspan><tspan class="cls-41" x="99.552" y="40.823">ow </tspan><tspan x="0" y="61.234">to begin the date.</tspan></text><path class="cls-14" d="M461.85,1015.612a4.235,4.235,0,0,1,4.231-4.233h0a4.236,4.236,0,0,1,4.232,4.233h0a4.225,4.225,0,0,1-4.232,4.228h0A4.224,4.224,0,0,1,461.85,1015.612Zm0-16.929a4.227,4.227,0,0,1,4.231-4.231h0a4.228,4.228,0,0,1,4.232,4.231h0a4.229,4.229,0,0,1-4.232,4.234h0A4.228,4.228,0,0,1,461.85,998.683Zm0-16.923a4.227,4.227,0,0,1,4.231-4.231h0a4.228,4.228,0,0,1,4.232,4.231h0a4.224,4.224,0,0,1-4.232,4.23h0A4.223,4.223,0,0,1,461.85,981.76Zm0-16.921a4.224,4.224,0,0,1,4.231-4.23h0a4.225,4.225,0,0,1,4.232,4.23h0a4.227,4.227,0,0,1-4.232,4.232h0A4.226,4.226,0,0,1,461.85,964.839Zm0-16.927a4.225,4.225,0,0,1,4.231-4.23h0a4.226,4.226,0,0,1,4.232,4.23h0a4.229,4.229,0,0,1-4.232,4.232h0A4.228,4.228,0,0,1,461.85,947.912Zm0-16.921a4.223,4.223,0,0,1,4.231-4.232h0a4.224,4.224,0,0,1,4.232,4.232h0a4.221,4.221,0,0,1-4.232,4.226h0A4.221,4.221,0,0,1,461.85,930.991Zm0-16.925a4.234,4.234,0,0,1,4.231-4.23h0a4.234,4.234,0,0,1,4.232,4.23h0a4.227,4.227,0,0,1-4.232,4.23h0A4.226,4.226,0,0,1,461.85,914.066Zm0-16.927a4.235,4.235,0,0,1,4.231-4.23h0a4.236,4.236,0,0,1,4.232,4.23h0a4.229,4.229,0,0,1-4.232,4.236h0A4.229,4.229,0,0,1,461.85,897.139Zm0-16.923a4.235,4.235,0,0,1,4.231-4.23h0a4.236,4.236,0,0,1,4.232,4.23h0a4.229,4.229,0,0,1-4.232,4.232h0A4.228,4.228,0,0,1,461.85,880.216Zm0-16.923a4.235,4.235,0,0,1,4.231-4.232h0a4.236,4.236,0,0,1,4.232,4.232h0a4.228,4.228,0,0,1-4.232,4.234h0A4.227,4.227,0,0,1,461.85,863.293Zm0-16.927a4.227,4.227,0,0,1,4.231-4.23h0a4.227,4.227,0,0,1,4.232,4.23h0a4.228,4.228,0,0,1-4.232,4.234h0A4.227,4.227,0,0,1,461.85,846.366Zm0-16.923a4.224,4.224,0,0,1,4.231-4.23h0a4.225,4.225,0,0,1,4.232,4.23h0a4.227,4.227,0,0,1-4.232,4.232h0A4.226,4.226,0,0,1,461.85,829.443Zm0-33.846a4.235,4.235,0,0,1,4.231-4.232h0a4.236,4.236,0,0,1,4.232,4.232h0a4.225,4.225,0,0,1-4.232,4.23h0A4.224,4.224,0,0,1,461.85,795.6Zm0-16.927a4.234,4.234,0,0,1,4.231-4.23h0a4.234,4.234,0,0,1,4.232,4.23h0a4.227,4.227,0,0,1-4.232,4.235h0A4.226,4.226,0,0,1,461.85,778.67Z"/><path class="cls-42" d="M512.382,698.488A64.277,64.277,0,0,1,524.3,713.675a58.975,58.975,0,0,1,7.479,22.341c2.9,27.089-6.968,48.363-29.684,63.488a56.406,56.406,0,0,1-22.724,8.715c-20.758,3.253-39.1-2.021-54.783-16.13a1.57,1.57,0,0,1-.249-.3,1.338,1.338,0,0,1,.555-1.019c.983-.813,1.722-1.9,2.66-2.7.89-.766,1.3-2.021,2.525-2.4a74.635,74.635,0,0,0,10.39,7.641,54.908,54.908,0,0,0,25.6,7.324,55.839,55.839,0,0,0,13.391-1.1,54.245,54.245,0,0,0,21.952-9.815,55.834,55.834,0,0,0,15.44-17.6,55.713,55.713,0,0,0,3.076-47.819,58.862,58.862,0,0,0-6.773-12.2,86.5,86.5,0,0,0-6.524-7.525A40.748,40.748,0,0,1,512.382,698.488Z"/><path class="cls-43" d="M514.61,737.94a46.818,46.818,0,0,0-14.176-27.091,41.027,41.027,0,0,0-10.992-7.807,47.017,47.017,0,0,0-60.789,67.336A38.206,38.206,0,0,0,436,779.116c.481.394.968.773,1.423,1.179a45.191,45.191,0,0,0,17.833,9.8,47.007,47.007,0,0,0,36.6-4.557,47.481,47.481,0,0,0,21.139-26.451A46.581,46.581,0,0,0,514.61,737.94Zm-53.6,14.807a.757.757,0,0,0-.089.08A.757.757,0,0,1,461.006,752.747Zm-1.792,1.932q-11.045,11.668-22.061,23.34,11.655-12.327,23.3-24.665a2.432,2.432,0,0,0,.262-.29,2.432,2.432,0,0,1-.262.29C460.037,753.8,459.621,754.239,459.214,754.679Zm2.017-2.126c.023-.007.037-.031.058-.038h-.007A.109.109,0,0,1,461.231,752.553Zm.477-.48c0-.015,0-.023.006-.03L478.08,734.7c0,.008,0,.018,0,.029ZM478.8,733.942l.007-.007a3.161,3.161,0,0,0,.3-.336A3.29,3.29,0,0,1,478.8,733.942Z"/><path class="cls-44" d="M512.382,698.488a40.748,40.748,0,0,0-5.746,6.085c-1.407-.468-2.294-1.645-3.325-2.554a49.471,49.471,0,0,0-12.481-7.741,55.483,55.483,0,0,0-17.609-4.571,54.779,54.779,0,0,0-39.073,11.3,57.9,57.9,0,0,0-10.135,10.1,55.358,55.358,0,0,0-10.941,41.234,54.931,54.931,0,0,0,14.143,30.245,24.171,24.171,0,0,1,2.868,3.081c-1.225.381-1.635,1.636-2.525,2.4-.938.807-1.677,1.892-2.66,2.7a1.338,1.338,0,0,0-.555,1.019,64.178,64.178,0,0,1,14.372-103.764,60.706,60.706,0,0,1,22.732-6.8Q490.784,678.458,512.382,698.488Z"/><path class="cls-45" d="M489.442,703.042a47.017,47.017,0,0,0-60.789,67.336,38.375,38.375,0,0,0,7.34,8.738.387.387,0,0,0,.055.043l64.609-68.081c-.07-.072-.138-.15-.223-.229A41.027,41.027,0,0,0,489.442,703.042Z"/><path class="cls-6" d="M470.657,779.362l-1.193-40.4a17.588,17.588,0,0,1,16.572-18.235,17.335,17.335,0,0,1,18.284,17.117,17.782,17.782,0,0,1-4.7,12.2"/><path class="cls-46" d="M486.638,724.248a14.464,14.464,0,0,1,9.237,3.251.658.658,0,0,1,.105,1.009l-2.866,3.23a.791.791,0,0,1-1.008.068,6.866,6.866,0,0,0-4.956-1.65,7.509,7.509,0,0,0,.481,15.008,8.858,8.858,0,0,0,3.314-.7l-.064-2.172-2.358.069a.678.678,0,0,1-.733-.653l-.11-3.7a.688.688,0,0,1,.69-.731l7.526-.222a.7.7,0,0,1,.694.69l.335,10.07a.928.928,0,0,1-.28.6,18.935,18.935,0,0,1-9.213,2.709,13.445,13.445,0,0,1-.794-26.878"/><path class="cls-6" d="M467.274,779.52l-1.193-40.4A17.587,17.587,0,0,0,448.46,721.9a17.329,17.329,0,0,0-17.241,18.162,17.789,17.789,0,0,0,5.411,11.9"/><path class="cls-47" d="M448.068,725.445a14.468,14.468,0,0,0-9.029,3.789.655.655,0,0,0-.043,1.013l3.049,3.057a.79.79,0,0,0,1.009.01,6.88,6.88,0,0,1,4.851-1.943,7.509,7.509,0,0,1,.4,15.011,8.835,8.835,0,0,1-3.347-.5l-.065-2.169,2.357-.069a.682.682,0,0,0,.7-.7l-.111-3.706a.687.687,0,0,0-.732-.689l-7.525.221a.707.707,0,0,0-.653.732l.26,10.07a.933.933,0,0,0,.319.589,18.9,18.9,0,0,0,9.355,2.162,13.446,13.446,0,0,0-.794-26.88"/><path class="cls-6" d="M519.957,724.235a58.875,58.875,0,0,0-6.773-12.2,54.993,54.993,0,0,0-6.429-7.416c-1.576-1.52-2.241-2-2.6-2.317a54.7,54.7,0,0,0-13.3-8.089,55.487,55.487,0,0,0-17.61-4.57,54.77,54.77,0,0,0-39.072,11.3,57.912,57.912,0,0,0-10.137,10.1A55.376,55.376,0,0,0,413.1,752.274a54.892,54.892,0,0,0,14.143,30.241,25.7,25.7,0,0,1,2.77,2.961c.026.036.058.081.1.126a75.506,75.506,0,0,0,10.389,7.637,54.923,54.923,0,0,0,25.6,7.324,56.052,56.052,0,0,0,13.392-1.1,54.37,54.37,0,0,0,21.951-9.814,55.921,55.921,0,0,0,15.439-17.6,55.722,55.722,0,0,0,3.077-47.821Zm-6.942,34.792a47.441,47.441,0,0,1-21.133,26.447,47.033,47.033,0,0,1-36.6,4.562,45.146,45.146,0,0,1-17.832-9.807c-.443-.392-.922-.761-1.377-1.133-.014-.016-.032-.023-.055-.044a38.414,38.414,0,0,1-7.339-8.738,47,47,0,0,1,60.79-67.339,41.031,41.031,0,0,1,10.99,7.811c.084.075.155.155.224.226a45.58,45.58,0,0,1,8.112,10.269,47.113,47.113,0,0,1,4.221,37.746Z"/><path class="cls-20" d="M863.376,742.726a41.909,41.909,0,1,1-41.59-42.218A41.906,41.906,0,0,1,863.376,742.726Z"/><g id="fGHtUO-5" data-name="fGHtUO"><path class="cls-21" d="M844.671,764.5c-.2-2.95-.166-5.789-.629-8.543-.895-5.19-3.177-6.514-8.188-4.942a30.113,30.113,0,0,0-4.32,1.907c-1.579.767-2.888.523-3.728-1.044a23.86,23.86,0,0,1-1.932-4.306c-.859-2.923-.732-2.994,1.7-4.552a9.824,9.824,0,0,0,4.761-7.806c.036-.53.007-1.062.071-1.585.341-2.528-.165-4.392-2.594-6-2-1.311-3.274-3.7-4.637-5.314-2.843,2.858-5.832,5.975-8.96,8.956a16.394,16.394,0,0,1-4.026,2.809c-1.564.78-1.722,1.738-1.224,3.234a10.012,10.012,0,0,0,5.011,6.072c.97.486,1.389,1.1,1.058,2.05a45.167,45.167,0,0,1-2.287,6.2c-.966,1.926-1.95,2-3.924,1.175a47.081,47.081,0,0,0-6.529-2.433c-2.7-.7-4.3.144-5.2,2.84a37.824,37.824,0,0,0-1.347,6.859,31.378,31.378,0,0,0-.056,4.133,4.64,4.64,0,0,1-3.435-2.617,10.459,10.459,0,0,1-.818-9.335,38.53,38.53,0,0,1,3.714-6.919c1.413-2.214,3.2-4.206,4.647-6.407a17.655,17.655,0,0,0,2.781-9.5c.261-10.252,7.646-16.255,16.457-16.837,9.758-.642,18.072,5.958,18.533,15.26a31.16,31.16,0,0,0,7.014,18.189,18.252,18.252,0,0,1,3.617,8.317C850.9,758.767,848.5,763.273,844.671,764.5Z"/><path class="cls-21" d="M836.49,763.359c-1.176-1.592-2.175-2.959-3.214-4.356,4.366,2.185,7.83,8.577,7.014,13.162a11.808,11.808,0,0,1-1.582,3.471,1.662,1.662,0,0,1-1.3.563q-15.873-.063-31.744-.254a2.272,2.272,0,0,1-1.6-.985,8.741,8.741,0,0,1-.813-7.768,15.622,15.622,0,0,1,7.074-8.593c-1.121,1.425-2.23,2.816-3.328,4.2,3.17-.992,6.134-1.264,9.119.177a10.131,10.131,0,0,1,5.447,7.108C824.173,762.931,828.291,761.036,836.49,763.359Z"/></g><path class="cls-6" d="M816.7,737.437c.858,2.458,2.662,3.955,4.739,3.862a4.9,4.9,0,0,0,4.436-3.919C822.892,734.184,819.845,734.406,816.7,737.437Zm4.676,1.588a1.834,1.834,0,0,1-1.6-1.353,4.055,4.055,0,0,1,3.213.025S822.558,739.019,821.375,739.025Z"/></svg>