<svg id="Layer_1" data-name="Layer 1" xmlns="http://www.w3.org/2000/svg" viewBox="0 0 187.554 69.755"><title>Logo_weiss_2_RGB_Original</title><g id="Layer_1-2" data-name="Layer 1"><path d="M187.554,29.624a4.175,4.175,0,1,1-4.175-4.175h0A4.175,4.175,0,0,1,187.554,29.624Zm-.643,0a3.532,3.532,0,1,0-3.533,3.532,3.532,3.532,0,0,0,3.533-3.532Z" transform="translate(0 0)" style="fill:#fff"/><path d="M182.1,27.7H184a1.311,1.311,0,0,1,.735.211,1.228,1.228,0,0,1,.431.487,1.271,1.271,0,0,1,.129.722,1.234,1.234,0,0,1-.6.962,2.485,2.485,0,0,1-.227.109l-.025.011.541,1.351h-.611a.04.04,0,0,1-.044-.03q-.245-.612-.488-1.224a.042.042,0,0,0-.046-.032h-1.059V31.55h-.64Zm.641,1.927h1.319a.613.613,0,0,0,.6-.532.631.631,0,0,0-.5-.74.614.614,0,0,0-.142-.011h-1.274Z" transform="translate(0 0)" style="fill:#fff"/></g><g id="Ebene_1" data-name="Ebene 1"><path d="M22.02,25.11a23.684,23.684,0,0,1,14.966,5.766,1.077,1.077,0,0,1,.258,1.5,1.111,1.111,0,0,1-.135.156l-4.845,5.154a1.3,1.3,0,0,1-1.657.061A11.283,11.283,0,0,0,22.571,34.8a12.3,12.3,0,1,0,.062,24.6,14.551,14.551,0,0,0,5.459-.981V54.86H24.228A1.115,1.115,0,0,1,23.064,53.8V47.684a1.127,1.127,0,0,1,1.087-1.166H36.556a1.155,1.155,0,0,1,1.106,1.166l.06,16.5a1.525,1.525,0,0,1-.49.983A31,31,0,0,1,22.02,69.152a22.021,22.021,0,0,1,0-44.042" transform="translate(0 0)" style="fill:#fff"/><path d="M44.837,25.663H52.2a1.164,1.164,0,0,1,1.164,1.164h0V67.434A1.166,1.166,0,0,1,52.2,68.6H44.837a1.166,1.166,0,0,1-1.166-1.166h0v-40.6a1.166,1.166,0,0,1,1.161-1.171Z" transform="translate(0 0)" style="fill:#fff"/><path d="M59.4,26.152a1.153,1.153,0,0,1,1.165-1.1H62.1L86.575,48.6h.062V26.827A1.165,1.165,0,0,1,87.8,25.663h7.362a1.208,1.208,0,0,1,1.166,1.164V68.108a1.155,1.155,0,0,1-1.166,1.106H94.18a1.811,1.811,0,0,1-.8-.307L69.154,44.555h-.061V67.434A1.166,1.166,0,0,1,67.929,68.6h-7.3a1.206,1.206,0,0,1-1.165-1.165Z" transform="translate(0 0)" style="fill:#fff"/><path d="M144.792,26.827a1.167,1.167,0,0,1,1.166-1.164H164.3a13.339,13.339,0,0,1,13.373,13.249c0,5.643-3.743,10.182-9.079,12.33L177,66.82a1.161,1.161,0,0,1-1.043,1.779H167.8a1.132,1.132,0,0,1-.981-.552L158.66,51.793h-4.233V67.434a1.206,1.206,0,0,1-1.165,1.165h-7.3a1.166,1.166,0,0,1-1.166-1.165ZM163.5,44a4.919,4.919,0,0,0,4.66-4.909,4.7,4.7,0,0,0-4.66-4.662h-9.078V44Z" transform="translate(0 0)" style="fill:#fff"/><path d="M100.932,69.755V21.282A21.1,21.1,0,0,1,121.446.007a20.785,20.785,0,0,1,21.308,20.249q.012.459,0,.918A21.336,21.336,0,0,1,136.7,35.632" transform="translate(0 0)" style="fill:#f39fff"/><path d="M122.043,4.251A17.338,17.338,0,0,1,133,8.473a.784.784,0,0,1,.193,1.092.793.793,0,0,1-.1.12l-3.547,3.772a.949.949,0,0,1-1.212.046,8.261,8.261,0,0,0-5.883-2.155,9.006,9.006,0,0,0,.045,18.009,10.641,10.641,0,0,0,4-.718v-2.6h-2.83a.818.818,0,0,1-.855-.779V20.779a.828.828,0,0,1,.8-.854.542.542,0,0,1,.057,0h9.027a.847.847,0,0,1,.809.854l.045,12.081a1.111,1.111,0,0,1-.36.718,22.68,22.68,0,0,1-11.14,2.922,16.125,16.125,0,0,1-.254-32.249c.085,0,.169,0,.254,0" transform="translate(0 0)" style="fill:#b21a9d"/></g></svg>