<svg xmlns="http://www.w3.org/2000/svg" viewBox="0 0 31.54 14.192"><title>Suiss regulated2</title><g id="Layer_3" data-name="Layer 3"><path d="M2.884,10.127V6.591H3.7q.894,0,.894,1.038a1.316,1.316,0,0,1-.1.531.763.763,0,0,1-.341.353L4.7,10.127H4.166l-.472-1.51h-.3v1.51Zm.507-3.06v1.1h.288a.531.531,0,0,0,.214-.037.3.3,0,0,0,.124-.108.492.492,0,0,0,.055-.171,1.988,1.988,0,0,0,0-.471.469.469,0,0,0-.06-.177.4.4,0,0,0-.358-.139Z" style="fill:#f195ff"/><path d="M5.234,10.127V6.591h1.51v.476h-1V8.105h.874v.477H5.741V9.62h1v.507Z" style="fill:#f195ff"/><path d="M7.275,7.425a.9.9,0,0,1,.074-.378.814.814,0,0,1,.2-.273.843.843,0,0,1,.272-.159.9.9,0,0,1,.886.159.833.833,0,0,1,.194.273.9.9,0,0,1,.074.378V7.6H8.466V7.425a.341.341,0,0,0-.1-.271.368.368,0,0,0-.241-.087.364.364,0,0,0-.241.087.338.338,0,0,0-.1.271V9.292a.333.333,0,0,0,.1.27.354.354,0,0,0,.241.087.358.358,0,0,0,.241-.087.336.336,0,0,0,.1-.27V8.627h-.4V8.18h.909V9.292a.9.9,0,0,1-.074.383.786.786,0,0,1-.194.262.819.819,0,0,1-.276.164.873.873,0,0,1-.61,0,.853.853,0,0,1-.47-.426.9.9,0,0,1-.074-.383Z" style="fill:#f195ff"/><path d="M11.293,6.591V9.332a.815.815,0,0,1-.062.32.826.826,0,0,1-.177.261.842.842,0,0,1-.262.179.8.8,0,0,1-.319.064.772.772,0,0,1-.315-.064.864.864,0,0,1-.44-.44.782.782,0,0,1-.064-.32V6.591h.507V9.282a.376.376,0,0,0,.089.278.325.325,0,0,0,.447,0,.38.38,0,0,0,.09-.278V6.591Z" style="fill:#f195ff"/><path d="M12,10.127V6.591h.507V9.62h1v.507Z" style="fill:#f195ff"/><path d="M13.846,10.127l.79-3.536h.422l.79,3.536h-.507l-.149-.76H14.5l-.149.76ZM15.1,8.89,14.85,7.608h-.011L14.591,8.89Z" style="fill:#f195ff"/><path d="M16.389,10.127V7.067H15.8V6.591h1.679v.476H16.9v3.06Z" style="fill:#f195ff"/><path d="M17.938,10.127V6.591h1.51v.476h-1V8.105h.874v.477h-.874V9.62h1v.507Z" style="fill:#f195ff"/><path d="M20.009,10.127V6.591h.75a.87.87,0,0,1,.663.238.94.94,0,0,1,.227.675V9.158a.987.987,0,0,1-.241.732.949.949,0,0,1-.694.237Zm.507-3.06V9.649h.234a.374.374,0,0,0,.3-.106.514.514,0,0,0,.09-.335V7.5a.527.527,0,0,0-.085-.322.356.356,0,0,0-.307-.115Z" style="fill:#f195ff"/><path d="M23.531,10.127V6.591h.507v3.536Z" style="fill:#f195ff"/><path d="M26.372,9.118v.219a.774.774,0,0,1-.063.31.861.861,0,0,1-.171.261.835.835,0,0,1-.256.182.757.757,0,0,1-.315.066,1.158,1.158,0,0,1-.293-.039.694.694,0,0,1-.269-.14.781.781,0,0,1-.2-.255.915.915,0,0,1-.076-.4V7.375a.828.828,0,0,1,.06-.322.743.743,0,0,1,.168-.259.794.794,0,0,1,.261-.171.862.862,0,0,1,.335-.063.771.771,0,0,1,.581.234.834.834,0,0,1,.171.27.907.907,0,0,1,.063.341v.2h-.507V7.434a.413.413,0,0,0-.084-.257.273.273,0,0,0-.229-.11.258.258,0,0,0-.251.116.636.636,0,0,0-.062.3V9.287a.471.471,0,0,0,.067.259.265.265,0,0,0,.241.1.381.381,0,0,0,.107-.016.334.334,0,0,0,.106-.058.281.281,0,0,0,.075-.109.438.438,0,0,0,.03-.174V9.118Z" style="fill:#f195ff"/><path d="M26.988,7.425a.9.9,0,0,1,.074-.378.814.814,0,0,1,.2-.273.843.843,0,0,1,.272-.159.873.873,0,0,1,.61,0,.907.907,0,0,1,.276.159.833.833,0,0,1,.194.273.9.9,0,0,1,.074.378V9.292a.9.9,0,0,1-.074.383.786.786,0,0,1-.194.262.828.828,0,0,1-.276.164.873.873,0,0,1-.61,0,.853.853,0,0,1-.47-.426.9.9,0,0,1-.074-.383Zm.506,1.867a.333.333,0,0,0,.1.27.353.353,0,0,0,.24.087.358.358,0,0,0,.242-.087.336.336,0,0,0,.1-.27V7.425a.341.341,0,0,0-.1-.271.368.368,0,0,0-.242-.087.363.363,0,0,0-.24.087.338.338,0,0,0-.1.271Z" style="fill:#f195ff"/><path d="M27.835,14.135H3.705A3.653,3.653,0,0,1,.057,10.487V6.071A3.652,3.652,0,0,1,3.705,2.424h24.13a3.651,3.651,0,0,1,3.647,3.647v4.416A3.652,3.652,0,0,1,27.835,14.135ZM3.705,2.715A3.36,3.36,0,0,0,.349,6.071v4.416a3.36,3.36,0,0,0,3.356,3.356h24.13a3.36,3.36,0,0,0,3.355-3.356V6.071a3.36,3.36,0,0,0-3.355-3.356Z" style="fill:#f195ff"/><path d="M27.834,14.192H3.705a3.709,3.709,0,0,1-3.7-3.7V6.071a3.709,3.709,0,0,1,3.705-3.7H27.834a3.71,3.71,0,0,1,3.706,3.7v4.416A3.71,3.71,0,0,1,27.834,14.192ZM3.705,2.481A3.6,3.6,0,0,0,.114,6.071v4.416a3.6,3.6,0,0,0,3.591,3.591H27.834a3.6,3.6,0,0,0,3.592-3.591V6.071a3.6,3.6,0,0,0-3.592-3.59ZM27.834,13.9H3.705A3.416,3.416,0,0,1,.293,10.487V6.071A3.416,3.416,0,0,1,3.705,2.658H27.834a3.417,3.417,0,0,1,3.413,3.413v4.416A3.417,3.417,0,0,1,27.834,13.9ZM3.705,2.772a3.3,3.3,0,0,0-3.3,3.3v4.416a3.3,3.3,0,0,0,3.3,3.3H27.834a3.3,3.3,0,0,0,3.3-3.3V6.071a3.3,3.3,0,0,0-3.3-3.3Z" style="fill:#f195ff"/><path d="M14.218,12.111a.376.376,0,0,1,.029-.151.4.4,0,0,1,.08-.122.37.37,0,0,1,.121-.082.37.37,0,0,1,.484.2.394.394,0,0,1,.028.151.389.389,0,0,1-.028.15.378.378,0,0,1-.2.205.367.367,0,0,1-.286,0,.387.387,0,0,1-.121-.082.415.415,0,0,1-.08-.123A.372.372,0,0,1,14.218,12.111Z" style="fill:#f195ff"/><path d="M15.6,12.111a.376.376,0,0,1,.029-.151.4.4,0,0,1,.081-.122.36.36,0,0,1,.121-.082.353.353,0,0,1,.285,0,.362.362,0,0,1,.119.082.347.347,0,0,1,.079.122.394.394,0,0,1,.028.151.389.389,0,0,1-.028.15.361.361,0,0,1-.079.123.378.378,0,0,1-.119.082.365.365,0,0,1-.285,0,.375.375,0,0,1-.121-.082.417.417,0,0,1-.081-.123A.372.372,0,0,1,15.6,12.111Z" style="fill:#f195ff"/><path d="M16.977,12.111a.376.376,0,0,1,.029-.151.383.383,0,0,1,.081-.122.356.356,0,0,1,.12-.082.356.356,0,0,1,.286,0,.371.371,0,0,1,.2.2.394.394,0,0,1,.028.151.389.389,0,0,1-.028.15.369.369,0,0,1-.2.205.367.367,0,0,1-.286,0,.371.371,0,0,1-.12-.082.4.4,0,0,1-.081-.123A.372.372,0,0,1,16.977,12.111Z" style="fill:#f195ff"/><rect x="7.396" width="17.079" height="5.35" style="fill:#f195ff"/><path d="M13.7,2h-.5V1.9a.421.421,0,0,0-.08-.258.313.313,0,0,0-.269-.109.357.357,0,0,0-.166.034.333.333,0,0,0-.1.086.355.355,0,0,0-.053.126.708.708,0,0,0-.014.148c0,.059,0,.109.006.149a.254.254,0,0,0,.038.106.219.219,0,0,0,.084.081.838.838,0,0,0,.153.069l.38.132a.969.969,0,0,1,.266.131.553.553,0,0,1,.16.172A.708.708,0,0,1,13.681,3a2.17,2.17,0,0,1,.019.3,1.333,1.333,0,0,1-.044.355.653.653,0,0,1-.408.468,1.045,1.045,0,0,1-.4.068.985.985,0,0,1-.335-.055.8.8,0,0,1-.268-.154.738.738,0,0,1-.177-.228A.634.634,0,0,1,12,3.469V3.307h.5v.136a.33.33,0,0,0,.08.216.336.336,0,0,0,.27.1.5.5,0,0,0,.2-.032.247.247,0,0,0,.109-.092.3.3,0,0,0,.046-.143c.005-.056.007-.117.007-.185a1.516,1.516,0,0,0-.01-.2.284.284,0,0,0-.038-.124.273.273,0,0,0-.09-.077,1.285,1.285,0,0,0-.148-.063l-.354-.128a.773.773,0,0,1-.431-.306.949.949,0,0,1-.11-.476.971.971,0,0,1,.054-.324.71.71,0,0,1,.16-.264.751.751,0,0,1,.26-.178.981.981,0,0,1,.377-.066.923.923,0,0,1,.338.06.9.9,0,0,1,.265.158.62.62,0,0,1,.223.469Z" style="fill:#fff"/><path d="M15.751,1.126V3.481a.634.634,0,0,1-.061.276.711.711,0,0,1-.172.224.839.839,0,0,1-.258.154.862.862,0,0,1-.311.055.842.842,0,0,1-.308-.055.824.824,0,0,1-.255-.154.721.721,0,0,1-.175-.224.6.6,0,0,1-.064-.276V1.126h.5V3.439a.3.3,0,0,0,.087.24.354.354,0,0,0,.438,0,.3.3,0,0,0,.087-.24V1.126Z" style="fill:#fff"/><path d="M16.31,4.165V1.126h.5V4.165Z" style="fill:#fff"/><path d="M18.968,2h-.5V1.9a.428.428,0,0,0-.08-.258.314.314,0,0,0-.27-.109.355.355,0,0,0-.165.034.333.333,0,0,0-.1.086.338.338,0,0,0-.053.126.707.707,0,0,0-.015.148,1.25,1.25,0,0,0,.007.149.268.268,0,0,0,.037.106.229.229,0,0,0,.085.081.824.824,0,0,0,.152.069l.38.132a.977.977,0,0,1,.267.131.565.565,0,0,1,.16.172A.707.707,0,0,1,18.948,3a2.011,2.011,0,0,1,.02.3,1.375,1.375,0,0,1-.044.355.659.659,0,0,1-.408.468,1.05,1.05,0,0,1-.4.068.989.989,0,0,1-.335-.055.806.806,0,0,1-.267-.154.738.738,0,0,1-.177-.228.621.621,0,0,1-.066-.284V3.307h.5v.136a.325.325,0,0,0,.08.216.333.333,0,0,0,.269.1.5.5,0,0,0,.2-.032.252.252,0,0,0,.109-.092.314.314,0,0,0,.046-.143c0-.056.007-.117.007-.185a1.516,1.516,0,0,0-.01-.2.313.313,0,0,0-.038-.124.294.294,0,0,0-.09-.077,1.367,1.367,0,0,0-.148-.063l-.355-.128a.777.777,0,0,1-.431-.306.95.95,0,0,1-.109-.476.971.971,0,0,1,.054-.324.71.71,0,0,1,.16-.264.733.733,0,0,1,.26-.178.974.974,0,0,1,.377-.066.923.923,0,0,1,.338.06.9.9,0,0,1,.264.158.618.618,0,0,1,.224.469Z" style="fill:#fff"/><path d="M21.019,2h-.5V1.9a.421.421,0,0,0-.08-.258.311.311,0,0,0-.269-.109.355.355,0,0,0-.165.034.35.35,0,0,0-.1.086.336.336,0,0,0-.052.126.707.707,0,0,0-.015.148,1.25,1.25,0,0,0,.007.149.253.253,0,0,0,.037.106.222.222,0,0,0,.085.081.824.824,0,0,0,.152.069l.38.132a.991.991,0,0,1,.267.131.565.565,0,0,1,.16.172A.732.732,0,0,1,21,3a2.011,2.011,0,0,1,.02.3,1.375,1.375,0,0,1-.044.355.725.725,0,0,1-.141.28.689.689,0,0,1-.268.188,1.045,1.045,0,0,1-.4.068.989.989,0,0,1-.335-.055.806.806,0,0,1-.267-.154.724.724,0,0,1-.177-.228.622.622,0,0,1-.067-.284V3.307h.5v.136a.325.325,0,0,0,.08.216.332.332,0,0,0,.269.1.492.492,0,0,0,.2-.032.255.255,0,0,0,.11-.092.314.314,0,0,0,.046-.143c.005-.056.006-.117.006-.185a1.542,1.542,0,0,0-.009-.2.313.313,0,0,0-.038-.124.294.294,0,0,0-.09-.077,1.311,1.311,0,0,0-.149-.063l-.354-.128a.773.773,0,0,1-.431-.306.95.95,0,0,1-.109-.476.946.946,0,0,1,.054-.324.7.7,0,0,1,.16-.264.738.738,0,0,1,.259-.178.981.981,0,0,1,.377-.066.92.92,0,0,1,.338.06.892.892,0,0,1,.265.158.621.621,0,0,1,.224.469Z" style="fill:#fff"/><path d="M21.466,4.165V1.126h1.477v.409h-.982v.893h.855v.41h-.855v.891h.982v.436Z" style="fill:#fff"/><path d="M8.9,2.323h.788V1.532h.681V2.32h.791V3H10.37v.792H9.687V3.005H8.9Z" style="fill:#fff"/></g></svg>